<svg xmlns="http://www.w3.org/2000/svg"><style>:root svg:not(:target){display:none}</style><svg viewBox="0 0 65 75" fill="none" id="accidental-icon"><path d="m0 74.4 8-74.4h15.2l7.94 74.4h-7.53l-1.9-21.02h-12.27l-1.86 21.02h-7.58Zm10.09-27.67h11.01l-1.44-15.76-2.04-24.32h-4l-2.1 24.36-1.43 15.72Zm38.31 28.27c-3.43 0-6.1-.9-7.99-2.7-1.89-1.83-2.97-4.58-3.25-8.27l-.1-2.28c-.03-.78-.03-1.55 0-2.33a19.9 19.9 0 0 1 1.21-6 13.63 13.63 0 0 1 3.4-4.83 25.22 25.22 0 0 1 6.41-4.14 98.6 98.6 0 0 1 4.7-2.14 60.75 60.75 0 0 1 4.92-1.86v-11.06c0-2.05-.43-3.52-1.3-4.42-.84-.9-2.35-1.35-4.55-1.35-1.86 0-3.35.39-4.47 1.16-1.11.78-1.72 2.16-1.81 4.14-.06.93-.1 2-.14 3.21a118.99 118.99 0 0 0 .14 5.86h-7.25a3967 3967 0 0 1-.1-4.1 90.66 90.66 0 0 1 0-4.04 16 16 0 0 1 1.59-6.74 8.46 8.46 0 0 1 4.37-3.9c2.01-.87 4.67-1.3 7.99-1.3 3.32 0 5.9.44 7.76 1.34a7.4 7.4 0 0 1 3.9 4.18c.78 1.93 1.17 4.4 1.17 7.44l-.05 43.53h-7.39v-5.17h-1.02a12.7 12.7 0 0 1-2.88 4.24c-1.09 1.02-2.84 1.53-5.25 1.53Zm1.96-5.58c1.76 0 3.25-.45 4.46-1.35 1.2-.9 2.14-2.2 2.79-3.9l.1-17.44a30.6 30.6 0 0 0-3.82 1.44c-1.3.59-2.76 1.38-4.37 2.37-2.01 1.15-3.35 2.45-4 3.9a13.52 13.52 0 0 0-1.02 4.98c-.03.84-.05 1.58-.05 2.24l.1 1.95a6.9 6.9 0 0 0 1.72 4.28 5.53 5.53 0 0 0 4.09 1.53Z" fill="#202020"></path></svg><svg viewBox="0 0 22 24" fill="none" id="account-icon"><path d="M10.99 13.98a7 7 0 1 0-.01-14 7 7 0 0 0 .01 14Zm0-12a5 5 0 1 1 0 10.01 5 5 0 0 1 0-10Zm6 13h-12a5 5 0 0 0-5 5v4.01h2v-4a3 3 0 0 1 3-3h12a3 3 0 0 1 3 3v4h2v-4a5 5 0 0 0-5-5Z" fill="#202020"></path></svg><svg viewBox="0 0 95 57" fill="none" id="antiques-icon"><path d="M36.93 37.82h-21.05l-3.69 8.68c-.9 2.14-1.36 3.73-1.36 4.78 0 .84.38 1.58 1.16 2.23.8.63 2.51 1.03 5.13 1.22v1.5h-17.12v-1.5c2.27-.4 3.74-.93 4.41-1.58 1.36-1.3 2.88-3.93 4.53-7.9l19.13-45.25h1.4l18.93 45.73c1.53 3.68 2.9 6.07 4.13 7.18 1.26 1.08 3 1.68 5.22 1.82v1.5h-21.46v-1.5c2.17-.1 3.62-.47 4.37-1.1a2.82 2.82 0 0 0 1.17-2.27c0-1.18-.54-3.06-1.6-5.63l-3.3-7.9Zm-1.12-3-9.22-22.21-9.47 22.21h18.69Zm46.28 16.06c-3.77 2.94-6.14 4.65-7.1 5.1a10.75 10.75 0 0 1-4.61 1.02 8.28 8.28 0 0 1-6.3-2.64c-1.63-1.75-2.44-4.06-2.44-6.93 0-1.8.4-3.38 1.2-4.7 1.1-1.84 3-3.57 5.7-5.19 2.72-1.62 7.24-3.6 13.55-5.92v-1.46c0-3.7-.6-6.24-1.77-7.62-1.15-1.38-2.83-2.07-5.05-2.07-1.68 0-3.02.46-4.01 1.38a4.16 4.16 0 0 0-1.52 3.16l.08 2.35c0 1.25-.32 2.2-.97 2.88a3.15 3.15 0 0 1-2.44 1.02c-1 0-1.8-.35-2.45-1.06a4.22 4.22 0 0 1-.92-2.88c0-2.32 1.18-4.46 3.53-6.4 2.35-1.95 5.65-2.92 9.9-2.92 3.26 0 5.94.55 8.02 1.66a7.61 7.61 0 0 1 3.5 3.93c.47 1.17.71 3.55.71 7.14v12.6c0 3.55.07 5.72.2 6.53.14.79.35 1.32.65 1.59.32.27.68.4 1.08.4.43 0 .8-.1 1.12-.28.56-.35 1.65-1.34 3.25-2.96v2.27c-3 4.05-5.85 6.08-8.58 6.08a3.88 3.88 0 0 1-3.13-1.38c-.77-.92-1.18-2.49-1.2-4.7Zm0-2.64v-14.15a78.76 78.76 0 0 0-7.82 3.45c-2.11 1.19-3.62 2.43-4.53 3.73a7.26 7.26 0 0 0-1.37 4.26c0 1.94.58 3.56 1.73 4.86a5.22 5.22 0 0 0 3.97 1.9c2.03 0 4.7-1.34 8.02-4.05Z" fill="#202020"></path></svg><svg viewBox="0 0 94 55" fill="none" id="block-icon"><path d="M0 47.69h2.53a5.1 5.1 0 0 0 2.86-.67 4.24 4.24 0 0 0 1.64-2.32l15.6-44.7h8.25l15.44 44.7c.38 1.1.93 1.88 1.64 2.32.7.45 1.68.67 2.94.67h2.45v6.06h-18.63v-6.06h4.09l-3.6-10.64h-17l-3.59 10.64h4.09v6.06h-18.71v-6.06Zm33.58-15.87-6.78-20.27-6.95 20.27h13.73Zm34.77 23.18c-4.36 0-7.68-.97-9.97-2.9-2.23-1.95-3.35-4.69-3.35-8.23 0-4 1.23-6.9 3.68-8.73 2.5-1.88 6.1-2.99 10.78-3.32l11.44-.75v-5.07c0-2.6-.55-4.48-1.64-5.64-1.08-1.17-2.94-1.75-5.55-1.75-1.8 0-3.3.17-4.5.5a9.7 9.7 0 0 0-3.18 1.41v3h-7.6v-6.57a28.38 28.38 0 0 1 15.44-4.32c10.46 0 15.69 4.7 15.69 14.12v18.2c0 1.1.19 1.9.57 2.4.44.5 1.12.75 2.04.75h1.8v5.65h-9.4l-1.06-5.23a15.95 15.95 0 0 1-6.12 4.98c-2.3 1-5.31 1.5-9.07 1.5Zm1.96-5.98c3.27 0 5.85-.72 7.76-2.16 1.9-1.44 2.86-3.63 2.86-6.57v-3.98l-10.79.83c-2.66.16-4.52.75-5.55 1.74-1.04.94-1.55 2.47-1.55 4.57 0 1.83.57 3.21 1.71 4.16 1.15.94 3 1.4 5.56 1.4Z" fill="#202020"></path></svg><svg viewBox="0 0 22 24" fill="none" id="cart-icon"><path d="M7 18a3 3 0 0 0-3 3 3 3 0 0 0 3 3 3 3 0 0 0 3-3 3 3 0 0 0-3-3Zm0 4a1 1 0 0 1-1-1 1 1 0 0 1 1-1 1 1 0 0 1 1 1 1 1 0 0 1-1 1Zm10-4a3 3 0 0 0-3 3 3 3 0 0 0 3 3 3 3 0 0 0 3-3 3 3 0 0 0-3-3Zm0 4a1 1 0 0 1-1-1 1 1 0 0 1 1-1 1 1 0 0 1 1 1 1 1 0 0 1-1 1Zm-13.12-22h-3.88v2h2.12l2 15h15.86v-2h-14.1l-.13-1h14.3l1.95-10h-17.6l-.52-4Zm15.7 6-1.18 6h-12.92l-.8-6h14.9Z" fill="#202020"></path></svg><svg viewBox="0 0 21 24" fill="none" id="dark-theme-icon"><path d="M20.97 20.39v-1.39l-3.16.03a7.02 7.02 0 0 1 0-14.04h3.16v-1.89a11.98 11.98 0 0 0-8.02-3.1 12 12 0 0 0 0 24c2.97 0 5.8-1.11 8.01-3.11v-.5h.01Zm-8.01 1.61a10 10 0 0 1-.01-20 10 10 0 0 1 4.37 1.01 9.01 9.01 0 0 0-.06 18c-1.34.64-2.8.98-4.31.98v.01Z" fill="#202020"></path></svg><svg viewBox="0 0 24 21" fill="none" id="favorites-icon"><path d="m13.3 1.84-1.31 1.33-1.31-1.34a6.22 6.22 0 0 0-4.42-1.83 6.22 6.22 0 0 0-6.26 6.24c0 1.66.65 3.23 1.83 4.4l10.17 10.36 10.17-10.36a6.2 6.2 0 0 0 0-8.82 6.3 6.3 0 0 0-8.87 0v.02Zm7.44 7.41-8.75 8.91-8.75-8.92a4.23 4.23 0 0 1 3.02-7.24c1.14 0 2.2.44 3 1.23l2.73 2.81 2.73-2.8a4.28 4.28 0 0 1 7.28 3 4.2 4.2 0 0 1-1.25 3l-.01.01Z" fill="#202020"></path></svg><svg viewBox="0 0 102 59" fill="none" id="grotesques-icon"><path d="M11.73 58.09h-11.73l20.08-58.09h15.45l20.15 58.09h-12.14l-4.7-14.11h-22.4l-4.7 14.1Zm15.78-48.05-8.26 24.4h16.69l-8.26-24.4h-.17Zm45.41 48.96c-1.87 0-3.7-.25-5.45-.75a13.16 13.16 0 0 1-4.55-2.32 11.41 11.41 0 0 1-3.14-3.9 12.15 12.15 0 0 1-1.15-5.48v-.5c0-2.65.5-4.75 1.48-6.3a10.67 10.67 0 0 1 3.97-3.57 19.1 19.1 0 0 1 5.45-1.74 59 59 0 0 1 5.95-.83c1.6-.17 3.08-.33 4.46-.5 1.43-.22 2.67-.53 3.72-.91a6.88 6.88 0 0 0 2.64-1.58c.66-.72 1-1.69 1-2.9v-.42c0-.94-.2-1.74-.58-2.4a4.14 4.14 0 0 0-1.5-1.75 6.37 6.37 0 0 0-2.47-1.08 14.5 14.5 0 0 0-3.3-.33c-1.22 0-2.35.11-3.4.33a7.19 7.19 0 0 0-2.72 1.16 5.63 5.63 0 0 0-1.82 2.25 7.63 7.63 0 0 0-.66 3.4v.5h-10.49v-.5c0-2.6.47-4.87 1.4-6.8a14.5 14.5 0 0 1 4.05-4.9 18.46 18.46 0 0 1 6.2-2.99 27.78 27.78 0 0 1 7.93-1.08c2.81 0 5.34.33 7.6 1 2.26.6 4.16 1.6 5.7 2.98a12.55 12.55 0 0 1 3.64 5.15c.82 2.1 1.24 4.67 1.24 7.72v17.84c0 1.82.16 3.2.5 4.15.32.88 1.01 1.35 2.06 1.4h.58l.74-.16v4.98c-1.16.06-2.37.08-3.64.08-1.2.06-2.47.09-3.8.09a9.18 9.18 0 0 1-3.22-.5 5.4 5.4 0 0 1-2.15-1.41 5.13 5.13 0 0 1-1.15-2.33c-.22-1-.33-2.13-.33-3.4a15.4 15.4 0 0 1-2.48 3.49 15.38 15.38 0 0 1-7.44 4.23c-1.48.39-3.1.58-4.87.58Zm4.21-8.22a12 12 0 0 0 4.13-.66 9.26 9.26 0 0 0 3.22-2.07 7.9 7.9 0 0 0 2.07-3.32c.5-1.33.74-2.88.74-4.65v-3.9c-.38.39-.85.72-1.4 1-.55.27-1.16.52-1.82.74-.66.17-1.38.33-2.15.5l-2.31.33c-1 .17-2.06.33-3.22.5-1.16.11-2.23.33-3.22.66-.94.34-1.74.89-2.4 1.66-.6.78-.9 1.83-.9 3.16v.33c0 .94.16 1.77.49 2.49.33.66.8 1.24 1.4 1.74.66.5 1.43.89 2.31 1.16.89.22 1.9.33 3.06.33Z" fill="#202020"></path></svg><svg viewBox="0 0 91 96" fill="none" id="handwritten-icon"><path d="M32.5 5.96c.54.25.96.38 1.26.38.5-.05.82-.05.97 0a.8.8 0 0 0 .45-.15c.44.1.8.07 1.04-.08l1.12.15c.3-.1.64-.12 1.04-.07.4 0 .72.07.97.22.55-.1.9-.12 1.04-.07.15.05.3.02.45-.08.1-.1.28-.12.52-.07.3 0 .5.05.6.15.6-.05.97-.1 1.12-.15.2-.1.4-.15.6-.15.84.05 1.34.02 1.48-.08.5-.1.75-.2.75-.3 0-.1.05-.15.15-.15.4 0 .67.08.82.23.25-.1.4-.2.45-.3.1-.16.2-.33.3-.53.4-.15.64-.38.74-.68.25-.1.42-.2.52-.3.15-.1.35-.2.6-.3l.37-.38.3-.15c.2-.2.4-.35.6-.45.24-.15.44-.32.59-.53.4-.25.67-.4.82-.45.2-.1.32-.22.37-.37.5-.15.8-.25.9-.3.1-.1.25-.15.44-.15.25-.25.58-.38.97-.38.4-.3.62-.4.67-.3.1.05.25.05.45 0 .45-.15.75-.2.9-.15h.67c.6.1.94.2 1.04.3.1.25.15.45.15.6 0 .15.02.28.07.38.4.3.6.5.6.6.35.65.65 1.13.9 1.43-.25.4-.38.63-.38.68.05.05.05.12 0 .22-.6.6-.94 1.13-1.04 1.58-.1.45-.28.88-.52 1.28v.68c.05.1.05.22 0 .37l-.15.38c-.05.1-.08.25-.08.45l-.07 1.35c-.1.25-.2.56-.3.9l-.15.98-.15.6c0 .2-.02.4-.07.6.05.36.02.61-.08.76-.1.1-.12.2-.07.3a9.6 9.6 0 0 0-.23 1.58c.05.25-.02.5-.22.75.1.65.08 1.13-.07 1.43a.82.82 0 0 0-.08.75c-.25.36-.32.56-.22.6.1.06.12.13.07.23-.15.45-.2.93-.15 1.43.1.45 0 .88-.3 1.28-.04.25-.04.5 0 .75.1.2.1.4 0 .6l-.37 1.43v.6c.05.1.03.23-.07.38l-.15 1.05c-.1.25-.12.43-.07.53.04.1-.03.2-.23.3.15.15.2.35.15.6a.7.7 0 0 1-.37.53v.75c0 .1-.05.15-.15.15.1.1.1.23 0 .38-.05.1-.05.27 0 .52 0 .6-.05.9-.15.9-.1 0-.12.06-.07.16a6.2 6.2 0 0 0 .22 1.35.72.72 0 0 0-.22.53c.04.15.02.27-.08.37-.05.56-.05.88 0 .98.05.1.05.25 0 .45 0 .7-.07 1.28-.22 1.73.1.2.1.38 0 .53-.05.15-.03.35.07.6-.1.8-.2 1.23-.3 1.28 0 .45-.05.83-.15 1.13a3 3 0 0 0 0 .98c.1.15.15.32.15.52a4.26 4.26 0 0 1-.22 1.28c-.05.1-.07.25-.07.45v.45l-.08.9c.05 0 .08.06.08.16-.1.6-.15.98-.15 1.13 0 .1.02.2.07.3.05.3.17.62.37.98-.3.35-.4.62-.3.82-.14.35-.22.58-.22.68.05.1.03.2-.07.3.1.1.12.23.07.38v.6c-.05.65-.1 1.08-.15 1.28 0 .2.08.4.23.6-.15.4-.23.8-.23 1.2.05.35.08.73.08 1.13.05.35.02.6-.08.75-.05.1-.05.2 0 .3.15.8.2 1.4.15 1.8-.05.41-.02.86.08 1.36.1.45.12.7.07.76-.05.05-.05.12 0 .22 0 .15.03.3.08.45l.14.38c0 .45.03.7.08.75.05.05.07.1.07.15v.75c0 .3-.05.53-.15.68a3.76 3.76 0 0 0 .3 1.2c.05.56.08.93.08 1.13.05.2.07.4.07.6-.05.3-.02.6.08.9l.07 1.21c.2.55.27.85.22.9 0 .05.05.13.15.23-.15.35-.15.65 0 .9.2.3.28.65.23 1.05.15.56.22.88.22.98a.8.8 0 0 1-.15.45c.2.4.3.65.3.76 0 .15.05.25.15.3l.15.82c.3.35.44.58.44.68 0 .15.05.23.15.23.15.5.23.8.23.9.05.1.02.17-.08.22.2.7.4 1.2.6 1.5.2.36.35.66.45.91 0 .5.17.83.52.98-.15.15-.15.28 0 .38.2.15.25.3.15.45.2.15.32.35.37.6l.15.9c.2.25.45.48.74.68.25.45.33.68.23.68-.05 0-.08.05-.08.15.2.25.35.37.45.37.1.05.17.13.22.23a4.35 4.35 0 0 1 .45.98c.25.35.4.55.45.6.05.1.12.2.22.3.3.45.47.7.52.75.1.05.18.13.23.23.35.55.54.82.6.82.1 0 .2.03.3.08.29.5.46.78.51.83l.3.3c.2.4.4.65.6.75.25.25.52.38.82.38.2.2.35.32.44.37.1.1.25.13.45.08.15.25.45.47.9.67.3.35.52.55.67.6l.6.3c.54 0 .81.03.81.08l.15.15c.25.05.45.05.6 0 .2 0 .4.03.6.08l.37.15c.1.1.25.12.44.07h1.35c.2.05.34.03.44-.07.15-.05.28-.08.38-.08.4-.05.67-.05.82 0 .14.05.3.03.44-.07.35-.3.65-.48.9-.53.25-.05.47-.13.67-.23.35-.05.57-.15.67-.3.1-.1.22-.1.37 0 .2-.75.37-1.17.52-1.27.2-.1.35-.23.45-.38.15 0 .27.02.37.07.15.1.3.15.45.15-.05.5-.12.78-.22.83-.1.05-.15.18-.15.38-.55 0-.82.05-.82.15v.37a5.37 5.37 0 0 1-1.05.46c-.1.3-.22.47-.37.52-.15.1-.27.08-.37-.07-.1.1-.22.2-.37.3a.73.73 0 0 0-.3.45c-.25.1-.47.23-.67.38-.2.2-.43.25-.67.15-.15.1-.33.2-.53.3-.14.1-.37.15-.67.15-.6.1-.94.17-1.04.22l-.3.3c-.54-.05-.84-.05-.9 0 0 .05-.04.1-.14.15a1.51 1.51 0 0 0-.67 0 4.2 4.2 0 0 0-.52.23l-.45-.23-.6.08c-.54-.15-.82-.18-.82-.08a3.63 3.63 0 0 0-1.19-.07c-.64.05-1 .1-1.04.15 0 .1-.08.12-.23.07-.2-.1-.42-.2-.67-.3a1.63 1.63 0 0 1-.67-.3c-.4 0-.62-.02-.67-.07a5.04 5.04 0 0 1-.9-.45.93.93 0 0 1-.37-.23c-.5-.1-.79-.17-.89-.22-.4-.36-.7-.58-.9-.68-.5-.35-.76-.58-.81-.68-.05-.05-.18-.07-.38-.07a.96.96 0 0 0-.37-.6c-.15-.1-.27-.26-.37-.46-.35-.6-.62-.95-.82-1.05a1.9 1.9 0 0 0-.45-.75c-.15-.2-.27-.43-.37-.68-.35-.4-.57-.75-.67-1.05a.9.9 0 0 0-.45-.6c-.1-.46-.3-.86-.6-1.2-.24-.3-.42-.73-.52-1.29-.35-.4-.52-.7-.52-.9a5.2 5.2 0 0 1-.52-.9c0-.1-.05-.2-.15-.3a8.7 8.7 0 0 0-.15-1.06c0-.2-.02-.37-.07-.52a9.9 9.9 0 0 1-.82-1.28 2.81 2.81 0 0 1-.3-1.13 7.1 7.1 0 0 1-.52-1.58c0-.3-.1-.58-.3-.83-.2-.6-.3-1.02-.3-1.28a1 1 0 0 0-.07-.67 2.9 2.9 0 0 1-.23-.9c0-.16-.05-.33-.15-.53-.1-.7-.15-1.2-.15-1.5a.82.82 0 0 0-.22-.6c.1-.3.08-.63-.07-.99-.15-.35-.1-.65.15-.9-.2-.45-.33-.75-.38-.9a1.97 1.97 0 0 1-.07-.6c-.05-.4-.08-.65-.08-.75.05-.1.08-.2.08-.3l-.15-.6a2.5 2.5 0 0 1-.08-.6 5.97 5.97 0 0 1-.22-1.36c.05-.3.08-.53.08-.68a3.86 3.86 0 0 1-.08-1.65c.05-.5.05-.76 0-.76s-.05-.05 0-.15a21.8 21.8 0 0 1-.07-1.28c.05-.15.02-.32-.08-.52-.05-.2-.07-.35-.07-.45-.05-.25-.05-.5 0-.76.1-.2.15-.4.15-.6-.15-.55-.2-.85-.15-.9.05-.1.07-.2.07-.3 0-.3-.02-.6-.07-.9a7.5 7.5 0 0 1-.08-1.06c0-.45.03-.92.08-1.43.1-.5.12-1 .07-1.5-.4 0-.67-.03-.82-.08-.1-.05-.25-.07-.45-.07-.4 0-.64.02-.74.07h-.22c-.15-.05-.35-.1-.6-.15a.83.83 0 0 0-.6-.07c-.74.15-1.36.2-1.86.15-.45-.05-.9-.03-1.34.07-.15 0-.32.03-.52.08-.15.05-.3.07-.45.07a.68.68 0 0 1-.45 0 1.22 1.22 0 0 0-.37-.07c-.5.05-.84.07-1.04.07a2.2 2.2 0 0 0-.52-.07 9.3 9.3 0 0 0-1.8.22c-.34.1-.64.1-.89 0l-.82.08c-.1 0-.2-.03-.3-.08l-.52.16-.44.15c-.3.35-.53.6-.68.75.1.1.1.25 0 .45a.96.96 0 0 1-.22.45c.1.2.1.4 0 .6-.05.15-.02.35.08.6-.3.35-.45.63-.45.83-.2.05-.32.15-.37.3 0 .15-.08.25-.23.3 0 .25-.02.48-.07.68-.05.15-.13.3-.23.45-.1.6-.17.95-.22 1.05-.05.16-.17.28-.37.38-.05.5-.15.83-.3.98 0 .45-.05.7-.15.75-.05.1-.07.2-.07.3 0 .5-.15.83-.45.98-.05.3-.15.55-.3.75-.1.25-.22.5-.37.75l-.37 1.06a.45.45 0 0 0-.3.3.45.45 0 0 1-.3.3c-.15.55-.22.88-.22.98.05.1.05.22 0 .37-.55.3-.8.48-.75.53.05.1.05.2 0 .3-.3.25-.42.43-.37.53.1.1.12.22.07.37-.4.45-.7.68-.9.68-.04.55-.14.85-.29.9-.1.05-.2.13-.3.23.05.25-.02.4-.22.45-.15.05-.18.17-.08.38-.44.55-.84.87-1.19.97-.4.45-.57.68-.52.68-.1.2-.2.35-.3.45-.05.1-.12.23-.22.38-.25.4-.42.62-.52.67a.49.49 0 0 0-.23.23c-.35.5-.67.78-.97.83a5 5 0 0 1-.74.83c-.1.15-.18.27-.23.37-.3 0-.5.08-.6.23-.04.15-.12.3-.22.45l-.3.3c-.1.1-.17.22-.22.38a8 8 0 0 1-1.64.82c-.4.2-.7.5-.9.9-.49.2-.74.33-.74.38.05.1.05.18 0 .23-.34-.05-.57 0-.67.15a.7.7 0 0 1-.52.37 12.1 12.1 0 0 0-1.71.9c-.35.06-.62.1-.82.16-.25.1-.43.22-.52.37-.45-.1-.7-.12-.75-.07-.05.1-.12.1-.22 0-.5 0-.75-.03-.75-.08s-.05-.07-.15-.07c-.64.05-1.26 0-1.86-.15-.4.05-.72.05-.97 0s-.37-.2-.37-.45a4.8 4.8 0 0 0-.75-.08c-.25.05-.5.03-.74-.08-.1-.05-.2-.12-.3-.22-.1-.1-.27-.13-.52-.08-.3-.25-.5-.45-.6-.6-.15-.1-.35-.12-.6-.07-.2-.4-.42-.63-.67-.68l-.52-.9a4.78 4.78 0 0 1-.97-1.73c0-.1-.07-.15-.22-.15 0-.35-.03-.55-.07-.6a.49.49 0 0 1-.23-.23c-.05-.5-.12-.8-.22-.9 0-.5-.08-.8-.23-.9.1-.2.18-.43.23-.68 0-.25-.1-.45-.3-.6l.3-.76c-.05 0-.08-.02-.08-.07.05-.45.13-.78.23-.98-.1-.15-.1-.33 0-.53a.95.95 0 0 1 .22-.37c-.05-.35 0-.6.15-.75.1-.16.15-.4.15-.76.2-.25.32-.47.37-.67.05-.2.13-.43.23-.68l.74-.98c.15-.2.27-.42.37-.68.4-.55.7-.87.9-.97a.7.7 0 0 0 .37-.53c.25-.1.45-.28.6-.53.15-.2.34-.35.6-.45a11.33 11.33 0 0 0 1.33-1.28c.25-.15.4-.25.45-.3.05-.05.15-.12.3-.22l.9-.45c.2-.05.4-.13.59-.23.55-.4.87-.63.97-.68.1-.05.22-.07.37-.07.45-.25.7-.38.75-.38.34 0 .57-.02.67-.07h.97c0 .05.05.07.15.07a6.4 6.4 0 0 1 1.41.23c.8.2 1.27.37 1.42.52.15.15.35.25.6.3.24.46.5.7.74.76.05.25.25.45.6.6.1.45.2.65.3.6.1 0 .17.03.22.08.34.45.52.77.52.97.05.2.12.38.22.53-.15.55-.2.88-.15.98.1.15.15.27.15.37.05.25.03.5-.07.76-.1.25-.15.55-.15.9l-.75.6a.49.49 0 0 1-.22.23c-.15.4-.3.6-.45.6-.1 0-.2.02-.3.07-.4.5-.64.8-.74.9-.1.1-.25.16-.45.16a2.77 2.77 0 0 1-.3-1.36 2 2 0 0 0 .15-.75c-.05-.3-.15-.6-.3-.9a6.5 6.5 0 0 1-.37-.75 9.1 9.1 0 0 0-.74-.68c-.25-.2-.43-.48-.52-.83-.6-.15-.92-.25-.97-.3a.87.87 0 0 0-.23-.15c-.44 0-.8-.05-1.04-.15a4.1 4.1 0 0 1-.82-.38c-.25.05-.45.08-.6.08h-.6c-.44.05-.71.1-.81.15-.1.05-.25.05-.45 0-.4.4-.72.65-.97.75-.3.35-.47.63-.52.83a.67.67 0 0 1-.37.45c-.15.5-.28.83-.38.98l-.37.52a2 2 0 0 0-.07.9c0 .26-.1.43-.3.53.2.15.27.3.22.45a1.7 1.7 0 0 0-.07.53c0 .25.02.45.07.6.05.15-.05.28-.3.38.15.3.25.53.3.68.05.2.08.37.08.52-.2.55-.3.93-.3 1.13a.96.96 0 0 1-.22.45c.34.35.5.55.44.6-.05.1-.07.2-.07.3.45.16.67.36.67.6.25.2.4.3.45.3.05.06.17.06.37 0 .1.5.22.76.37.76.1.05.15.18.15.38.55.1.9.25 1.04.45.15.2.35.35.6.45.45.25.7.35.75.3.04 0 .12.02.22.07.55.15.9.2 1.04.15.1 0 .2.03.3.08.45.1.77.13.97.08.15-.05.32-.03.52.07.6 0 1.04-.05 1.34-.15.3-.1.67-.15 1.12-.15.1-.1.25-.2.45-.3.25-.05.42-.15.52-.3.65-.25 1.1-.45 1.34-.6.25-.1.45-.3.6-.6a4 4 0 0 1 .52-.38c.1 0 .12-.08.07-.23.25-.05.43-.15.52-.3.15-.15.35-.27.6-.37.2-.3.35-.5.45-.6l.3-.16c0-.25.07-.42.22-.52.2-.1.3-.3.3-.6.4-.1.64-.33.74-.68.15-.3.38-.5.67-.6.2-.3.33-.56.38-.76.1-.15.22-.3.37-.45.3-.35.45-.6.45-.75 0-.15.07-.28.22-.38.25-.35.4-.6.45-.75a.72.72 0 0 1 .3-.37c0-.4.12-.7.37-.9.25-.16.35-.48.3-.98.3-.36.5-.78.6-1.28.14-.5.37-.96.66-1.36.2-.6.35-1.08.45-1.43.15-.3.2-.62.15-.97.25-.4.42-.66.52-.76.15-.05.2-.2.15-.45.25-.15.37-.4.37-.75.05-.3.18-.58.38-.83a2 2 0 0 0 .3-.98c0-.3.07-.52.22-.67.15-.5.3-.95.44-1.36.05-.15.08-.27.08-.37 0-.1.02-.28.07-.53.2-.4.28-.63.23-.68v-.3l.22-.37c.1-.15.15-.28.15-.38a.9.9 0 0 0-.07-.6c-.05-.2-.05-.4 0-.6.1-.25.27-.48.52-.68.3-.2.34-.48.15-.83.24-.6.4-.97.44-1.12.1-.16.1-.3 0-.46.15-.45.2-.72.15-.82 0-.1.03-.2.08-.3.25-.56.34-.96.3-1.2a2 2 0 0 1 .14-.76l.3-.83c.15-.7.2-1.15.15-1.35 0-.25.08-.45.22-.6-.14-.45-.14-.83 0-1.13.2-.35.3-.75.3-1.2.1-.5.15-.8.15-.9.05-.1.13-.2.23-.3.1-.26.14-.44.14-.54 0-.1.03-.2.08-.3.05-.4.1-.6.15-.6.1-.05.15-.12.15-.22.05-.5.12-.86.22-1.06a9.1 9.1 0 0 0 .3-1.88c.3-.65.42-1.1.37-1.35 0-.3.13-.55.37-.75l.23-.83c.1-.4.15-.68.15-.83.2-.5.3-.88.3-1.13 0-.3.1-.57.3-.82-.06-.4 0-.73.14-.98.15-.3.2-.55.15-.75l.37-.83c.05-.35.1-.53.15-.53a.5.5 0 0 0 .23-.22c.05-.25.07-.5.07-.76.05-.25.15-.47.3-.67l.15-.9c.15-.46.25-.78.3-.98a.96.96 0 0 1 .37-.6c-.05-.46.02-.8.22-1.06.25-.25.38-.57.38-.98.2-.45.27-.67.22-.67-.05-.05-.08-.15-.08-.3.25-.1.38-.23.38-.38.05-.15.17-.28.37-.38.15-.35.22-.55.22-.6.05-.1.15-.15.3-.15.2-.6.32-.93.37-.98.3-.4.43-.62.38-.67-.05-.1-.03-.2.07-.3l.45-.9a1 1 0 0 0 .37-.6c.1-.26.25-.46.45-.61.05-.3.25-.63.6-.98.3-.3.44-.5.44-.6a27008.49 27008.49 0 0 0 .52-.75c.05 0 .1-.05.15-.15.15-.15.25-.28.3-.38.05-.1.15-.17.3-.22-.55-.4-1-.58-1.34-.53-.3 0-.6.05-.9.15-.1 0-.25.02-.44.07l-.6.16h-.82a13.72 13.72 0 0 1-1.79.22c-.05-.05-.12-.07-.22-.07l-2.16.07h-.82a6.4 6.4 0 0 1-.9-.07c-.2 0-.4-.03-.6-.08a1.64 1.64 0 0 0-.52-.07c-.6.25-1.06.35-1.41.3a3.42 3.42 0 0 0-1.5 0c-.2.05-.4 0-.59-.15-.5.2-.94.2-1.34 0a1 1 0 0 1-.82.22c-.3-.1-.62-.07-.97.08-.9.1-1.84.15-2.83.15-.5.15-.87.22-1.12.22-.2 0-.42.03-.67.08-.25.15-.45.22-.6.22a.68.68 0 0 0-.44 0 5.2 5.2 0 0 1-1.12.23c-.2 0-.35.05-.45.15-.15.1-.3.18-.45.23l-.6.22-1.33.3c-.65.45-1.1.7-1.35.75-.2.25-.37.38-.52.38a.82.82 0 0 0-.37.08c-.4.25-.62.4-.67.45 0 .05-.05.12-.15.22-.4.1-.62.23-.67.38-.05.15-.17.22-.37.22-.05.6-.18.96-.38 1.06-.24.6-.42.95-.52 1.05a.93.93 0 0 0-.37.23c.05.6.03.92-.07.97-.1.05-.2.13-.3.23-.6.6-.9 1.15-.9 1.65a15.69 15.69 0 0 1-.44 2.56c-.1.15-.1.33 0 .53-.05.85.02 1.48.22 1.88a5 5 0 0 0 .37.9c.05 0 .08.05.08.15.1.15.15.33.15.53-.05.15-.05.27 0 .37.1.26.24.46.44.6l.45.46c.1.4.22.67.37.83.1.1.28.12.52.07 0 .3.15.48.45.53.35 0 .52.15.52.45.2 0 .38.1.53.3.14.15.34.25.6.3l.89.23c.24.1.4.2.44.3.1.05.28.02.52-.08.35.3.6.35.75.15.2-.2.42-.3.67-.3.35.2.7.35 1.04.45.35.05.53.15.53.3l-1.27.76c-.25.15-.5.27-.75.37-.4-.05-.62-.05-.67 0a.87.87 0 0 1-.22.15c-.3 0-.5.05-.6.15-.1.05-.2.03-.3-.07-.44.15-.7.2-.74.15-.05-.1-.12-.13-.22-.08a4.7 4.7 0 0 0-1.2.38c-.1.05-.2.07-.3.07-.2 0-.4-.02-.6-.07a3.65 3.65 0 0 0-.74-.08l-.74-.37-1.42-.3c-.44-.4-.7-.58-.74-.53-.1.05-.2.07-.3.07-.3-.2-.45-.35-.45-.45 0-.15-.05-.2-.15-.15-.35-.5-.62-.8-.82-.9-.1-.35-.25-.6-.44-.75-.2-.2-.28-.5-.23-.9-.3-.3-.45-.5-.45-.6 0-.1-.02-.2-.07-.3-.2-.56-.27-.86-.22-.91a.58.58 0 0 0-.08-.23c0-.25-.02-.45-.07-.6-.1-.2-.18-.4-.23-.6.1-.6.13-1.03.08-1.28a3.52 3.52 0 0 1-.08-.67c.15-.36.23-.63.23-.83.15-.35.22-.6.22-.75 0-.15.05-.3.15-.46.25-1.25.57-2.13.97-2.63a4 4 0 0 1 .3-.9c.35-.6.62-.9.82-.9 0-.2.05-.35.15-.45.1-.1.15-.26.15-.46.5-.5.91-.87 1.26-1.12.35-.3.65-.66.9-1.06.2-.15.37-.22.52-.22.1-.05.15-.15.15-.3.35-.25.57-.43.67-.53l.3-.3c.5-.2.87-.55 1.11-1.05.5-.26.75-.4.75-.46.35-.2.57-.3.67-.3l.37-.22c.45-.3.72-.45.82-.45a.45.45 0 0 0 .3-.3c.4-.26.67-.38.82-.38.2 0 .37-.03.52-.08.25-.05.5-.2.75-.45.6-.15.92-.25.97-.3l1.86-.45 1.42-.53c.44-.3.74-.45.89-.45.2 0 .4-.05.6-.15.5-.15.82-.2.97-.15.14.05.27 0 .37-.15.15.1.3.13.45.08.2-.05.37-.08.52-.08.25-.05.47-.05.67 0 .2 0 .4-.05.6-.15.14.1.32.13.52.08.24-.05.44 0 .6.15.59-.05.84-.05.74 0-.05 0 0-.03.15-.08.34.1.54.13.6.08.1-.1.2-.13.3-.08.29.05.49.08.59.08.1-.05.25-.08.44-.08h.67Zm19.9.38c-.25.25-.5.37-.75.37-.5.25-.77.38-.82.38l-.97.3-.67.15a.82.82 0 0 0-.37.08c-.25.55-.48.9-.67 1.05-.2.1-.4.22-.6.38-.15.85-.57 1.37-1.27 1.57-.25.36-.37.56-.37.6.05.06.05.1 0 .16l-.67.75c0 .05-.05.12-.15.22 0 .6-.15 1-.45 1.2-.05.41-.1.69-.15.84 0 .15-.05.32-.15.52l-.6.53a.87.87 0 0 0-.14.22c0 .4-.05.68-.15.83-.05.1-.07.2-.07.3-.35.55-.55.98-.6 1.28 0 .3-.12.55-.37.75 0 .3-.1.53-.3.68-.15.15-.22.38-.22.68-.2.3-.35.5-.45.6-.05.05-.05.13 0 .23 0 .7-.05 1.15-.15 1.35-.1.15-.17.3-.22.45-.2.3-.3.5-.3.6.05.05.02.13-.08.23 0 .4-.02.65-.07.75a.32.32 0 0 1-.23.08c-.24.8-.47 1.25-.67 1.35l-.07.68c.05.05.07.1.07.15 0 .2-.05.4-.15.6a.5.5 0 0 0 .08.45c-.25.15-.32.35-.22.6.1.2.12.43.07.68l-.37.83c0 .1-.13.12-.37.07.1.2.17.4.22.6.05.15.02.35-.08.6-.24.4-.32.66-.22.76.1.05.15.12.15.22-.1.1-.2.23-.3.38-.1.1-.22.2-.37.3 0 .5-.05.75-.15.75-.05-.05-.05-.02 0 .08-.05.3-.12.55-.22.75-.05.2-.05.48 0 .83-.05.5-.13.8-.23.9l-.22.23c.2.4.22.8.07 1.2a11 11 0 0 0-.37 1.2c0 .55-.12.98-.37 1.28-.25.3-.42.6-.52.9 0 .15.02.28.07.38.1.1.15.25.15.45-.4.4-.55.65-.45.75.15.1.23.25.23.45-.1.26-.2.46-.3.6-.05.16-.03.28.07.38-.1.65-.2 1.08-.3 1.28-.04.15-.02.28.08.38-.2.35-.32.62-.37.82a3.7 3.7 0 0 1-.23.53c.5.4.9.65 1.2.75.3.05.62.05.96 0 .55-.1.85-.12.9-.07h.22c.6-.1.9-.13.9-.08h1.04c.05-.05.12-.07.22-.07l.53.22c.3.05.52 0 .67-.15.15.15.3.2.44.15.15-.1.35-.15.6-.15.35.1.57.13.67.08.15-.05.27-.08.37-.08.55.1.9.13 1.05.08.2-.05.42-.08.67-.08.15-.05.3-.05.44 0 .15.05.33.05.53 0 .74-.05 1.26-.07 1.56-.07.3-.05.6-.03.9.07a.7.7 0 0 0 0-.45.7.7 0 0 1 0-.45c0-.4.05-.78.14-1.13.15-.4.18-.75.08-1.05.05-.6.07-1.13.07-1.58.05-.45.2-.8.45-1.05-.15-.1-.2-.25-.15-.46l.15-.67c0-.5-.02-.85-.07-1.06 0-.2.02-.4.07-.6.05-.1.08-.35.08-.75s.02-.63.07-.68c-.05-.55-.07-.87-.07-.97 0-.1.02-.2.07-.3.15-.56.2-.86.15-.9v-.61c0-.2.02-.38.07-.53.1-.4.13-.65.08-.75 0-.15.02-.3.07-.45.1-.3.13-.48.08-.53v-.3c0-.15.02-.27.07-.37a.5.5 0 0 0 .08-.45c.2-.36.24-.53.15-.53-.05-.05-.05-.18 0-.38 0-.6.02-.97.07-1.13a3.52 3.52 0 0 0 .3-1.35c0-.2.07-.4.22-.6a6.58 6.58 0 0 1-.07-.9l.07-1.5c.2-.4.3-.66.3-.76v-.3c0-.55.1-.98.3-1.28-.05-.4-.05-.7 0-.9.05-.2.02-.35-.08-.45.1-.4.18-.68.23-.83a1.2 1.2 0 0 0 0-.6c.25-.76.32-1.33.22-1.73-.05-.4.07-.73.37-.98-.05-.4-.1-.65-.15-.75a1.24 1.24 0 0 1-.07-.3c.15-.46.2-.83.15-1.13.25-.6.35-1 .3-1.2 0-.26.05-.48.15-.68.2-.45.27-.73.22-.83v-.45a.8.8 0 0 0 .15-.45v-.38c.1-.45.12-.7.07-.75 0-.05.03-.13.08-.23.15-.25.25-.45.3-.6.05-.15.05-.27 0-.37.14-.26.2-.53.14-.83.3-.75.4-1.23.3-1.43a1.21 1.21 0 0 1 0-.6c-.25-.1-.52-.1-.82 0l-.97.15Z" fill="#202020"></path><path d="m84.52 35.45-.15.98c.05.05.07.1.07.15-.05.4-.07.67-.07.82a.7.7 0 0 1 0 .45c-.05.1-.15.23-.3.38-.1.1-.1.25 0 .45-.3.4-.4.63-.3.68.1.05.15.1.15.15a3.44 3.44 0 0 1-.07 1.43c0 .65-.05 1.03-.15 1.13.05.3.02.57-.08.82-.05.26 0 .46.15.6.05.56.05.9 0 1.06 0 .1.05.22.15.38-.2.6-.27.95-.22 1.05.2.55.3.95.3 1.2 0 .2.07.4.22.6-.15.4-.18.78-.08 1.13.1.35.18.73.23 1.13-.05.55-.05.85 0 .9.05 0 .07.05.07.15.1.25.15.56.15.9 0 .3.08.56.22.76 0 .7.18 1.13.53 1.28-.05.35-.03.55.07.6.1.05.15.12.15.22-.1.26-.08.46.07.6.15.1.15.23 0 .38.2.1.4.18.6.23.2 0 .35.07.45.22.3 0 .54.05.74.15.25.1.5.08.75-.07.4-.2.64-.4.74-.6.35 0 .6-.05.75-.15l.6-.3c.14-.2.27-.3.37-.3a.7.7 0 0 1 .37-.08c-.1.2-.2.38-.3.53-.1.15-.1.37 0 .67-.25.1-.5.23-.74.38-.2.1-.38.28-.53.53-.5.4-.79.65-.89.75-.1.1-.25.15-.45.15-.5.45-.74.78-.74.98a.91.91 0 0 1-.52.15.93.93 0 0 0-.38.22c-.3.35-.5.53-.6.53-.04 0-.1.07-.14.22-.7.16-1.17.2-1.42.16h-.67c-.5-.1-.82-.26-.97-.46-.15-.15-.32-.15-.52 0-.1-.35-.35-.5-.74-.45-.25-.3-.43-.55-.53-.75-.05-.15-.17-.28-.37-.38a.84.84 0 0 1-.07-.37c0-.2-.03-.35-.08-.45l-.22-.45a1.55 1.55 0 0 1 0-.68 34 34 0 0 0-.67-1.8c-.1-.36-.1-.68 0-.98-.1-.4-.18-.66-.23-.76a1.24 1.24 0 0 1-.07-.3c0-.3-.03-.55-.07-.75v-.75c.05-.65.02-1.08-.08-1.28a3.8 3.8 0 0 1-.07-.75c.05-.55.05-.86 0-.9v-.23c.05-.45.05-.73 0-.83a.67.67 0 0 1-.08-.3c-.54.3-.9.53-1.04.68-.1.1-.2.22-.3.37-.1.3-.22.5-.37.6a.93.93 0 0 0-.38.23c-.3.25-.47.45-.52.6 0 .15-.05.28-.15.38-.3.2-.5.35-.6.45-.04.05-.04.18 0 .38-.2.1-.34.22-.44.37-.1.15-.27.28-.52.38-.25.35-.5.65-.75.9a2.6 2.6 0 0 1-.67.53c-.15.05-.27.17-.37.37-.4.25-.65.45-.74.6a.72.72 0 0 1-.3.38c-.45.25-.7.43-.75.53-.05.05-.12.05-.22 0-.65.55-.97.9-.97 1.05-.5.2-.8.38-.9.53-.1.15-.3.2-.6.15-.49.3-.99.42-1.48.37-.5-.1-.9-.2-1.2-.3l-.44-.22a2.3 2.3 0 0 0-.45-.15 2.61 2.61 0 0 1-.82-.6.95.95 0 0 0-.52-.46c.15-.25.15-.47 0-.67a15.6 15.6 0 0 0-.37-.6c.05-.26.05-.43 0-.53l-.15-.38c-.05-.6-.05-.93 0-.98a.2.2 0 0 0 .07-.15c0-.2-.02-.37-.07-.52-.05-.2-.05-.4 0-.6.2-.56.27-.96.22-1.2 0-.26.05-.48.15-.68.15-.26.2-.43.15-.53 0-.15.02-.28.07-.38.25-.4.38-.65.38-.75.1-.55.17-.83.22-.83.1-.35.2-.55.3-.6.15-.1.17-.25.07-.45.2-.35.3-.58.3-.68l.15-.3c.2-.05.35-.17.45-.37a.8.8 0 0 0 0-.68c.44-.2.67-.38.67-.53 0-.2.05-.37.15-.52.35-.25.67-.46.97-.6.3-.2.44-.53.44-.98.3-.35.53-.56.67-.6a.7.7 0 0 0 .38-.53c.15-.1.27-.2.37-.3.1-.15.2-.28.3-.38.25-.25.37-.4.37-.45 0-.05.05-.13.15-.23.55-.3.87-.5.97-.6l.67-.75c.1-.1.25-.18.45-.23.4-.35.8-.62 1.19-.82.2-.1.35-.15.45-.15a.72.72 0 0 0 .37-.3c.45-.1.84-.2 1.2-.3.69-.36 1.2-.48 1.56-.38.34.05.77.05 1.26 0 .5.2.8.35.9.45.15.1.27.18.37.23.15 0 .32-.03.52-.08s.37-.02.52.08c.5.4.77.6.82.6.1 0 .2.05.3.15.6.3 1.04.35 1.34.15l.82-.53c.2.05.38.08.52.08.2-.05.38 0 .53.15Zm-9.17 3.3c-.25 0-.42-.04-.52-.14a.49.49 0 0 0-.23-.23c-.44-.1-.82-.07-1.11.08-.3.15-.65.22-1.05.22-.5.45-.74.7-.74.75-.3.4-.52.68-.67.83-.15.15-.18.35-.08.6-.6.25-.9.56-.9.9 0 .36-.17.58-.51.68a2.7 2.7 0 0 1-.23.68 12.26 12.26 0 0 0-.45 1.65c.05.06.05.13 0 .23-.1.25-.22.48-.37.68-.1.2-.1.37 0 .52l-.3 1.13c-.05.2-.12.43-.22.68.05.45.08.8.08 1.05s.02.53.07.83c.1.3.15.58.15.83l.6.6c.04 0 .07.02.07.07.7.1 1.07.18 1.12.23l.44.23c.25-.26.5-.46.75-.6.25-.16.42-.43.52-.83.5-.45.8-.76.9-.9.14-.2.34-.36.6-.46l.74-.98c.4-.3.62-.55.67-.75.1-.2.2-.47.3-.82a8 8 0 0 0 .44-.38c.1-.1.13-.25.08-.45.1-.2.2-.38.3-.53.15-.2.22-.43.22-.68.25-.1.4-.22.45-.37.1-.2.27-.3.52-.3.05-.5.12-.78.22-.83.1-.1.25-.15.45-.15.1-.55.2-.95.3-1.2l.3-.76c-.35-.4-.53-.7-.53-.9a2.4 2.4 0 0 0-.74-.38.88.88 0 0 1-.15-.22c-.2-.1-.4-.18-.6-.23-.15-.1-.32-.17-.52-.22l-.37-.15Z" fill="#202020"></path></svg><svg viewBox="0 0 93 52" fill="none" id="historical-icon"><path d="m51.84 49.51-8 1.16a405.9 405.9 0 0 0-4.23-13.8l-27.28 1.2a342.1 342.1 0 0 0-4.64 13.04l-7.69-1.05a344.5 344.5 0 0 1 10.57-25.35 494.26 494.26 0 0 1 12.4-24.71l9.49.17a309.82 309.82 0 0 1 10.64 24.13c3.2 8.17 6.12 16.58 8.74 25.21Zm-24.84-43.85a334.08 334.08 0 0 0-12.3 26.48l22.9-1a235.77 235.77 0 0 0-4.94-12.84c-1.76-4.2-3.65-8.42-5.66-12.64Zm64.48 46.34-6.65-1.12.48-4.8a32.07 32.07 0 0 1-8.13 3.84c-2.64.8-5.12 1.2-7.42 1.2-1.63 0-3.2-.22-4.74-.65a11.32 11.32 0 0 1-4-1.95 9.82 9.82 0 0 1-2.85-3.3 10.38 10.38 0 0 1-1.05-4.8c0-1.85.27-3.5.81-4.95a12.74 12.74 0 0 1 2.24-3.85 14.12 14.12 0 0 1 3.35-2.86c1.3-.8 2.68-1.44 4.17-1.94a31.86 31.86 0 0 1 9.49-1.47c1.49 0 2.88.06 4.17.17 1.28.12 2.42.26 3.42.45a22.5 22.5 0 0 0-1.66-4.54 9.24 9.24 0 0 0-2.71-3.4 6.67 6.67 0 0 0-4.3-1.33c-.89 0-1.9.13-3.02.4-1.13.26-2.37.72-3.73 1.4a29.97 29.97 0 0 0-4.44 2.83 43.71 43.71 0 0 0-5.15 4.57l-4.1-5.01a45.17 45.17 0 0 1 6.24-5.01 36.88 36.88 0 0 1 5.62-3.07 23.18 23.18 0 0 1 8.91-1.9c2.1 0 3.96.35 5.56 1.05 1.63.7 3.06 1.68 4.3 2.93a16.21 16.21 0 0 1 3.12 4.36 31.5 31.5 0 0 1 2.07 5.39c.54 1.93.92 3.93 1.15 6 .25 2.06.37 4.12.37 6.16 0 2.18-.12 4.52-.37 7.02s-.64 5.23-1.15 8.18Zm-5.7-13.53c.05-1.13.08-2.26.1-3.37a26.3 26.3 0 0 0-.16-3.48 28 28 0 0 0-3.5-.82 24.5 24.5 0 0 0-9.59.4 15.9 15.9 0 0 0-4.9 2.1 9.12 9.12 0 0 0-3.12 3.33 6.3 6.3 0 0 0-.4 4.5c.3 1.36.92 2.32 1.82 2.86.93.55 2.03.82 3.32.82 1.67 0 3.55-.35 5.63-1.06a45.51 45.51 0 0 0 6-2.59c1.94-1 3.54-1.9 4.8-2.69Z" fill="#202020"></path></svg><svg viewBox="0 0 24 24" fill="none" id="light-theme-icon"><path d="M13 0h-2v3.06a8.9 8.9 0 0 0-4.61 1.92l-2.17-2.17-1.41 1.41 2.17 2.17a8.98 8.98 0 0 0-1.92 4.61h-3.06v2h3.06a8.9 8.9 0 0 0 1.92 4.61l-2.17 2.17 1.41 1.41 2.17-2.17a8.98 8.98 0 0 0 4.61 1.92v3.06h2v-3.06a8.9 8.9 0 0 0 4.61-1.92l2.17 2.17 1.41-1.41-2.17-2.17a8.98 8.98 0 0 0 1.92-4.61h3.06v-2h-3.06a8.9 8.9 0 0 0-1.92-4.61l2.17-2.17-1.41-1.41-2.17 2.17a8.98 8.98 0 0 0-4.61-1.92v-3.06Z" fill="#fff"></path></svg><svg viewBox="0 0 76 67" fill="none" id="monospaced-icon"><path d="M9.65 66.24h-9.65l13.52-66.24h13.24l13.43 66.24h-9.83l-3.22-16.94h-14.28l-3.21 16.94Zm10.3-53.28-5.48 27.35h11.06l-5.48-27.35h-.1Zm33.83 54.04c-1.77 0-3.35-.28-4.73-.85a10.26 10.26 0 0 1-3.5-2.56 13.22 13.22 0 0 1-2.08-3.97 18.63 18.63 0 0 1-.66-5.2v-3.98c0-2.27.37-4.07 1.13-5.4a9.6 9.6 0 0 1 2.93-3.21c1.2-.89 2.56-1.55 4.07-1.99 1.57-.5 3.15-.98 4.73-1.42l3.3-.85c1.02-.32 1.9-.7 2.66-1.14a4.4 4.4 0 0 0 1.7-1.7c.44-.7.66-1.64.66-2.84v-2.93c0-.95-.13-1.74-.38-2.37a3.7 3.7 0 0 0-.94-1.7 3.83 3.83 0 0 0-1.7-.95 8.35 8.35 0 0 0-2.37-.28 9 9 0 0 0-2.37.28 4.9 4.9 0 0 0-1.89 1.04 4.7 4.7 0 0 0-1.23 1.9 9.85 9.85 0 0 0-.37 3.02v3.98h-8.8v-3.88c0-2.34.35-4.39 1.04-6.15a12.17 12.17 0 0 1 7.66-7.29 20 20 0 0 1 6.34-.95c2.52 0 4.66.32 6.43.95 1.76.63 3.21 1.58 4.35 2.84a10 10 0 0 1 2.55 4.54c.57 1.77.85 3.85.85 6.25v26.5c0 1.38.1 2.4.29 3.02.25.57.75.89 1.51.95h.47l.57-.19v5.77c-.76.13-1.54.2-2.36.2h-2.37c-1.2 0-2.24-.1-3.12-.3a5.53 5.53 0 0 1-2.08-1.13 5.64 5.64 0 0 1-1.13-1.98 12.4 12.4 0 0 1-.48-2.94c-.44 1.01-1 1.96-1.7 2.84a13.2 13.2 0 0 1-2.36 2.18 11 11 0 0 1-3.03 1.32c-1.14.38-2.33.57-3.6.57Zm3.4-7.95a8.3 8.3 0 0 0 2.93-.47 5.78 5.78 0 0 0 2.08-1.61 5.85 5.85 0 0 0 1.33-2.65c.31-1.07.47-2.3.47-3.7v-9.17c-.25.19-.57.4-.95.66a14.33 14.33 0 0 1-2.64 1.04c-.5.13-1.04.25-1.61.38-.7.19-1.45.38-2.27.57-.76.19-1.48.47-2.18.85a4.1 4.1 0 0 0-1.6 1.51 5.17 5.17 0 0 0-.57 2.65v4.45c0 .95.1 1.77.28 2.46.25.7.6 1.3 1.04 1.8.44.44.95.76 1.51.95.64.19 1.36.28 2.18.28Z" fill="#202020"></path></svg><svg viewBox="0 0 136 63" fill="none" id="non-alphabetic-icon"><path d="M12.78 38.83c0 .46-.13.84-.4 1.14-.26.28-.6.52-1.02.73-.43.2-.94.36-1.55.49-.57.13-1.17.24-1.8.34a7.13 7.13 0 0 0-3.99 2.47 9.63 9.63 0 0 0-1.73 3.04 13.7 13.7 0 0 0-.67 4.64 13 13 0 0 0 .75 4.75 7.67 7.67 0 0 0 4.96 4.64 12.68 12.68 0 0 0 7.1-.12c1.19-.38 2.33-.95 3.43-1.71s2.2-1.72 3.27-2.89a42.93 42.93 0 0 0 3.31-4.1 72.1 72.1 0 0 0 4.02-6.42 180.46 180.46 0 0 0 7.64-15.13 1205.55 1205.55 0 0 1 7-15.05c1.12-2.33 2.2-4.45 3.26-6.38 1.1-2 2.1-3.6 2.97-4.82a14.3 14.3 0 0 1 2.56-2.82 6.5 6.5 0 0 1 2.48-1.29c.83-.23 1.73-.34 2.7-.34 2.81 0 4.84.6 6.1 1.82 1.25 1.22 1.88 3.03 1.88 5.44 0 1.85-.31 4.05-.94 6.6-.63 2.57-1.42 5.32-2.37 8.25-.95 2.92-1.98 5.93-3.08 9.05a356.2 356.2 0 0 0-3.09 9 116.3 116.3 0 0 0-2.37 8.17 27.57 27.57 0 0 0-.94 6.42c0 1.93.44 3.42 1.32 4.49.88 1.06 2.33 1.6 4.36 1.6 1.66 0 3.25-.4 4.78-1.18a17.53 17.53 0 0 0 4.58-3.5 40.99 40.99 0 0 0 4.63-5.85c1.58-2.33 3.23-5.04 4.96-8.13l1.96-3.5 1.01.72-1.95 3.5a131.63 131.63 0 0 1-5.27 8.7 40.9 40.9 0 0 1-4.96 6.16 18.29 18.29 0 0 1-5.08 3.68 12.3 12.3 0 0 1-5.49 1.26c-1.55 0-2.92-.24-4.1-.73a8.52 8.52 0 0 1-4.8-4.9c-.4-1.14-.6-2.35-.6-3.65a23 23 0 0 1 .4-3.95c.3-1.52.7-3.16 1.17-4.94.5-1.8 1.07-3.68 1.7-5.66.64-2 1.32-4.04 2.02-6.12h-15.83c-.92 1.95-1.88 3.88-2.85 5.78a159.2 159.2 0 0 1-5.8 10.56c-.95 1.57-1.89 3-2.81 4.3a35.88 35.88 0 0 1-3.65 4.4 21.1 21.1 0 0 1-3.61 2.97 13.85 13.85 0 0 1-7.75 2.24c-3.33 0-5.94-.98-7.82-2.93-1.85-1.97-2.78-4.82-2.78-8.55 0-2 .26-3.87.79-5.62a15.8 15.8 0 0 1 2.18-4.63 10.94 10.94 0 0 1 3.27-3.12 7.7 7.7 0 0 1 4.06-1.14c.73 0 1.32.13 1.77.38.48.25.71.73.71 1.44Zm35.27-29.1a213.82 213.82 0 0 0-4.66 9.53 3641.02 3641.02 0 0 1-5.45 11.63h15.6c.83-2.43 1.63-4.85 2.4-7.26.81-2.4 1.53-4.7 2.15-6.91.65-2.2 1.17-4.24 1.54-6.12.4-1.87.6-3.5.6-4.86 0-.89-.08-1.61-.26-2.17a2.93 2.93 0 0 0-.75-1.29c-.3-.33-.68-.54-1.13-.65a6.7 6.7 0 0 0-3.72.19c-.68.26-1.34.7-2 1.33-.64.64-1.32 1.49-2.02 2.55a42.6 42.6 0 0 0-2.3 4.03Z" fill="#202020"></path><path d="M78.73 39.02a42.02 42.02 0 0 1 7.3-13.45 29.97 29.97 0 0 1 9.48-7.64 23.45 23.45 0 0 1 4.77-1.86c1.58-.4 3.06-.6 4.44-.6a8.2 8.2 0 0 1 3.57.68 5.56 5.56 0 0 1 2.3 1.86c.6.79 1.02 1.75 1.27 2.89.25 1.11.38 2.35.38 3.72l3.04-8.43h5.57l-9.6 26.6c-.34.98-.7 2-1.04 3.04a47.11 47.11 0 0 0-.94 3.03c-.25 1-.47 1.96-.64 2.9-.15.9-.23 1.75-.23 2.54 0 1.75.45 3.14 1.35 4.18.93 1.04 2.36 1.56 4.3 1.56 1.67 0 3.3-.36 4.88-1.07a17.4 17.4 0 0 0 4.66-3.3 37.13 37.13 0 0 0 4.66-5.59 91.62 91.62 0 0 0 4.82-7.9l1.92-3.5 1.01.72-1.96 3.5a99.6 99.6 0 0 1-5.26 8.55 38.3 38.3 0 0 1-4.96 5.93 18.3 18.3 0 0 1-5.08 3.45 14 14 0 0 1-5.53 1.1c-1.52 0-2.88-.23-4.06-.72a7.93 7.93 0 0 1-2.93-1.97 8.6 8.6 0 0 1-1.77-3.12c-.4-1.21-.6-2.57-.6-4.06 0-1 .09-2.06.27-3.2.17-1.16.43-2.36.78-3.6-3.28 5.57-6.53 9.75-9.73 12.53-3.21 2.77-6.47 4.15-9.78 4.15a8.75 8.75 0 0 1-3.99-.84 7.6 7.6 0 0 1-2.67-2.4 10.89 10.89 0 0 1-1.54-3.6 20 20 0 0 1-.49-4.56c0-1.78.18-3.64.53-5.59a42.8 42.8 0 0 1 1.5-5.93Zm8.01 21.02c1.36 0 2.74-.36 4.14-1.07 1.4-.73 2.8-1.72 4.17-2.96a34.4 34.4 0 0 0 4.06-4.4 67.85 67.85 0 0 0 9.44-17.29 40.97 40.97 0 0 0 1.66-5.63c.4-1.8.6-3.4.6-4.83a9.2 9.2 0 0 0-.5-3.23c-.3-.88-.7-1.6-1.23-2.13a4.11 4.11 0 0 0-1.77-1.17 6.1 6.1 0 0 0-2.03-.35c-1.4 0-2.97.45-4.7 1.33-1.7.87-3.45 2.2-5.23 4a38.77 38.77 0 0 0-5.26 6.76 56.44 56.44 0 0 0-4.7 9.57 64.04 64.04 0 0 0-2.67 8.52 30.9 30.9 0 0 0-.86 6.53c0 1.98.38 3.53 1.16 4.67.8 1.12 2.04 1.68 3.72 1.68Z" fill="#202020"></path></svg><svg viewBox="0 0 24 24" fill="none" id="search-icon"><path d="M16 0a8.01 8.01 0 0 0-6.32 12.9l-9.68 9.69 1.41 1.41 9.68-9.68a7.99 7.99 0 0 0 12.91-6.32c0-4.4-3.6-8-8-8Zm0 14a6 6 0 1 1 0-12 6 6 0 0 1 0 12Z" fill="#202020"></path></svg><svg viewBox="0 0 18 15" fill="none" id="tg-icon"><path d="M18 1.28c-.25 2.64-1.33 9.04-1.88 12-.23 1.25-.7 1.66-1.13 1.71-.97.09-1.7-.63-2.63-1.25-1.46-.96-2.29-1.57-3.7-2.5-1.65-1.08-.58-1.68.36-2.65.25-.25 4.5-4.14 4.59-4.49a.33.33 0 0 0-.08-.3c-.1-.08-.24-.05-.35-.03-.15.03-2.48 1.58-7.01 4.65-.67.45-1.27.69-1.8.67-.6-.02-1.72-.33-2.57-.62-1.05-.33-1.86-.51-1.8-1.1.04-.3.45-.6 1.23-.92 4.85-2.11 8.08-3.51 9.69-4.18 4.62-1.94 5.56-2.27 6.2-2.27.13 0 .44.03.64.2.17.13.22.32.24.45-.02.1.01.4 0 .63Z" fill="#F0F0F0"></path></svg><svg viewBox="0 0 22 12" fill="none" id="vk-icon"><path d="M11.98 12c-7.51 0-11.8-4.5-11.98-12h3.77c.12 5.5 2.9 7.83 5.1 8.31v-8.31h3.54v4.74c2.17-.2 4.45-2.36 5.22-4.74h3.55c-.6 2.93-3.07 5.1-4.83 5.98a9.97 9.97 0 0 1 5.65 6.02h-3.9a6.58 6.58 0 0 0-5.7-4.29v4.29h-.42Z" fill="#F0F0F0"></path></svg></svg>