<svg viewBox="0 0 95 57" fill="none" xmlns="http://www.w3.org/2000/svg"><path d="M36.93 37.82h-21.05l-3.69 8.68c-.9 2.14-1.36 3.73-1.36 4.78 0 .84.38 1.58 1.16 2.23.8.63 2.51 1.03 5.13 1.22v1.5h-17.12v-1.5c2.27-.4 3.74-.93 4.41-1.58 1.36-1.3 2.88-3.93 4.53-7.9l19.13-45.25h1.4l18.93 45.73c1.53 3.68 2.9 6.07 4.13 7.18 1.26 1.08 3 1.68 5.22 1.82v1.5h-21.46v-1.5c2.17-.1 3.62-.47 4.37-1.1a2.82 2.82 0 0 0 1.17-2.27c0-1.18-.54-3.06-1.6-5.63l-3.3-7.9Zm-1.12-3-9.22-22.21-9.47 22.21h18.69Zm46.28 16.06c-3.77 2.94-6.14 4.65-7.1 5.1a10.75 10.75 0 0 1-4.61 1.02 8.28 8.28 0 0 1-6.3-2.64c-1.63-1.75-2.44-4.06-2.44-6.93 0-1.8.4-3.38 1.2-4.7 1.1-1.84 3-3.57 5.7-5.19 2.72-1.62 7.24-3.6 13.55-5.92v-1.46c0-3.7-.6-6.24-1.77-7.62-1.15-1.38-2.83-2.07-5.05-2.07-1.68 0-3.02.46-4.01 1.38a4.16 4.16 0 0 0-1.52 3.16l.08 2.35c0 1.25-.32 2.2-.97 2.88a3.15 3.15 0 0 1-2.44 1.02c-1 0-1.8-.35-2.45-1.06a4.22 4.22 0 0 1-.92-2.88c0-2.32 1.18-4.46 3.53-6.4 2.35-1.95 5.65-2.92 9.9-2.92 3.26 0 5.94.55 8.02 1.66a7.61 7.61 0 0 1 3.5 3.93c.47 1.17.71 3.55.71 7.14v12.6c0 3.55.07 5.72.2 6.53.14.79.35 1.32.65 1.59.32.27.68.4 1.08.4.43 0 .8-.1 1.12-.28.56-.35 1.65-1.34 3.25-2.96v2.27c-3 4.05-5.85 6.08-8.58 6.08a3.88 3.88 0 0 1-3.13-1.38c-.77-.92-1.18-2.49-1.2-4.7Zm0-2.64v-14.15a78.76 78.76 0 0 0-7.82 3.45c-2.11 1.19-3.62 2.43-4.53 3.73a7.26 7.26 0 0 0-1.37 4.26c0 1.94.58 3.56 1.73 4.86a5.22 5.22 0 0 0 3.97 1.9c2.03 0 4.7-1.34 8.02-4.05Z" fill="#202020"/></svg>