<svg viewBox="0 0 65 75" fill="none" xmlns="http://www.w3.org/2000/svg"><path d="m0 74.4 8-74.4h15.2l7.94 74.4h-7.53l-1.9-21.02h-12.27l-1.86 21.02h-7.58Zm10.09-27.67h11.01l-1.44-15.76-2.04-24.32h-4l-2.1 24.36-1.43 15.72Zm38.31 28.27c-3.43 0-6.1-.9-7.99-2.7-1.89-1.83-2.97-4.58-3.25-8.27l-.1-2.28c-.03-.78-.03-1.55 0-2.33a19.9 19.9 0 0 1 1.21-6 13.63 13.63 0 0 1 3.4-4.83 25.22 25.22 0 0 1 6.41-4.14 98.6 98.6 0 0 1 4.7-2.14 60.75 60.75 0 0 1 4.92-1.86v-11.06c0-2.05-.43-3.52-1.3-4.42-.84-.9-2.35-1.35-4.55-1.35-1.86 0-3.35.39-4.47 1.16-1.11.78-1.72 2.16-1.81 4.14-.06.93-.1 2-.14 3.21a118.99 118.99 0 0 0 .14 5.86h-7.25a3967 3967 0 0 1-.1-4.1 90.66 90.66 0 0 1 0-4.04 16 16 0 0 1 1.59-6.74 8.46 8.46 0 0 1 4.37-3.9c2.01-.87 4.67-1.3 7.99-1.3 3.32 0 5.9.44 7.76 1.34a7.4 7.4 0 0 1 3.9 4.18c.78 1.93 1.17 4.4 1.17 7.44l-.05 43.53h-7.39v-5.17h-1.02a12.7 12.7 0 0 1-2.88 4.24c-1.09 1.02-2.84 1.53-5.25 1.53Zm1.96-5.58c1.76 0 3.25-.45 4.46-1.35 1.2-.9 2.14-2.2 2.79-3.9l.1-17.44a30.6 30.6 0 0 0-3.82 1.44c-1.3.59-2.76 1.38-4.37 2.37-2.01 1.15-3.35 2.45-4 3.9a13.52 13.52 0 0 0-1.02 4.98c-.03.84-.05 1.58-.05 2.24l.1 1.95a6.9 6.9 0 0 0 1.72 4.28 5.53 5.53 0 0 0 4.09 1.53Z" fill="#202020"/></svg>