<svg viewBox="0 0 94 55" fill="none" xmlns="http://www.w3.org/2000/svg"><path d="M0 47.69h2.53a5.1 5.1 0 0 0 2.86-.67 4.24 4.24 0 0 0 1.64-2.32l15.6-44.7h8.25l15.44 44.7c.38 1.1.93 1.88 1.64 2.32.7.45 1.68.67 2.94.67h2.45v6.06h-18.63v-6.06h4.09l-3.6-10.64h-17l-3.59 10.64h4.09v6.06h-18.71v-6.06Zm33.58-15.87-6.78-20.27-6.95 20.27h13.73Zm34.77 23.18c-4.36 0-7.68-.97-9.97-2.9-2.23-1.95-3.35-4.69-3.35-8.23 0-4 1.23-6.9 3.68-8.73 2.5-1.88 6.1-2.99 10.78-3.32l11.44-.75v-5.07c0-2.6-.55-4.48-1.64-5.64-1.08-1.17-2.94-1.75-5.55-1.75-1.8 0-3.3.17-4.5.5a9.7 9.7 0 0 0-3.18 1.41v3h-7.6v-6.57a28.38 28.38 0 0 1 15.44-4.32c10.46 0 15.69 4.7 15.69 14.12v18.2c0 1.1.19 1.9.57 2.4.44.5 1.12.75 2.04.75h1.8v5.65h-9.4l-1.06-5.23a15.95 15.95 0 0 1-6.12 4.98c-2.3 1-5.31 1.5-9.07 1.5Zm1.96-5.98c3.27 0 5.85-.72 7.76-2.16 1.9-1.44 2.86-3.63 2.86-6.57v-3.98l-10.79.83c-2.66.16-4.52.75-5.55 1.74-1.04.94-1.55 2.47-1.55 4.57 0 1.83.57 3.21 1.71 4.16 1.15.94 3 1.4 5.56 1.4Z" fill="#202020"/></svg>