<svg viewBox="0 0 102 59" fill="none" xmlns="http://www.w3.org/2000/svg"><path d="M11.73 58.09h-11.73l20.08-58.09h15.45l20.15 58.09h-12.14l-4.7-14.11h-22.4l-4.7 14.1Zm15.78-48.05-8.26 24.4h16.69l-8.26-24.4h-.17Zm45.41 48.96c-1.87 0-3.7-.25-5.45-.75a13.16 13.16 0 0 1-4.55-2.32 11.41 11.41 0 0 1-3.14-3.9 12.15 12.15 0 0 1-1.15-5.48v-.5c0-2.65.5-4.75 1.48-6.3a10.67 10.67 0 0 1 3.97-3.57 19.1 19.1 0 0 1 5.45-1.74 59 59 0 0 1 5.95-.83c1.6-.17 3.08-.33 4.46-.5 1.43-.22 2.67-.53 3.72-.91a6.88 6.88 0 0 0 2.64-1.58c.66-.72 1-1.69 1-2.9v-.42c0-.94-.2-1.74-.58-2.4a4.14 4.14 0 0 0-1.5-1.75 6.37 6.37 0 0 0-2.47-1.08 14.5 14.5 0 0 0-3.3-.33c-1.22 0-2.35.11-3.4.33a7.19 7.19 0 0 0-2.72 1.16 5.63 5.63 0 0 0-1.82 2.25 7.63 7.63 0 0 0-.66 3.4v.5h-10.49v-.5c0-2.6.47-4.87 1.4-6.8a14.5 14.5 0 0 1 4.05-4.9 18.46 18.46 0 0 1 6.2-2.99 27.78 27.78 0 0 1 7.93-1.08c2.81 0 5.34.33 7.6 1 2.26.6 4.16 1.6 5.7 2.98a12.55 12.55 0 0 1 3.64 5.15c.82 2.1 1.24 4.67 1.24 7.72v17.84c0 1.82.16 3.2.5 4.15.32.88 1.01 1.35 2.06 1.4h.58l.74-.16v4.98c-1.16.06-2.37.08-3.64.08-1.2.06-2.47.09-3.8.09a9.18 9.18 0 0 1-3.22-.5 5.4 5.4 0 0 1-2.15-1.41 5.13 5.13 0 0 1-1.15-2.33c-.22-1-.33-2.13-.33-3.4a15.4 15.4 0 0 1-2.48 3.49 15.38 15.38 0 0 1-7.44 4.23c-1.48.39-3.1.58-4.87.58Zm4.21-8.22a12 12 0 0 0 4.13-.66 9.26 9.26 0 0 0 3.22-2.07 7.9 7.9 0 0 0 2.07-3.32c.5-1.33.74-2.88.74-4.65v-3.9c-.38.39-.85.72-1.4 1-.55.27-1.16.52-1.82.74-.66.17-1.38.33-2.15.5l-2.31.33c-1 .17-2.06.33-3.22.5-1.16.11-2.23.33-3.22.66-.94.34-1.74.89-2.4 1.66-.6.78-.9 1.83-.9 3.16v.33c0 .94.16 1.77.49 2.49.33.66.8 1.24 1.4 1.74.66.5 1.43.89 2.31 1.16.89.22 1.9.33 3.06.33Z" fill="#202020"/></svg>