<svg viewBox="0 0 91 96" fill="none" xmlns="http://www.w3.org/2000/svg"><path d="M32.5 5.96c.54.25.96.38 1.26.38.5-.05.82-.05.97 0a.8.8 0 0 0 .45-.15c.44.1.8.07 1.04-.08l1.12.15c.3-.1.64-.12 1.04-.07.4 0 .72.07.97.22.55-.1.9-.12 1.04-.07.15.05.3.02.45-.08.1-.1.28-.12.52-.07.3 0 .5.05.6.15.6-.05.97-.1 1.12-.15.2-.1.4-.15.6-.15.84.05 1.34.02 1.48-.08.5-.1.75-.2.75-.3 0-.1.05-.15.15-.15.4 0 .67.08.82.23.25-.1.4-.2.45-.3.1-.16.2-.33.3-.53.4-.15.64-.38.74-.68.25-.1.42-.2.52-.3.15-.1.35-.2.6-.3l.37-.38.3-.15c.2-.2.4-.35.6-.45.24-.15.44-.32.59-.53.4-.25.67-.4.82-.45.2-.1.32-.22.37-.37.5-.15.8-.25.9-.3.1-.1.25-.15.44-.15.25-.25.58-.38.97-.38.4-.3.62-.4.67-.3.1.05.25.05.45 0 .45-.15.75-.2.9-.15h.67c.6.1.94.2 1.04.3.1.25.15.45.15.6 0 .15.02.28.07.38.4.3.6.5.6.6.35.65.65 1.13.9 1.43-.25.4-.38.63-.38.68.05.05.05.12 0 .22-.6.6-.94 1.13-1.04 1.58-.1.45-.28.88-.52 1.28v.68c.05.1.05.22 0 .37l-.15.38c-.05.1-.08.25-.08.45l-.07 1.35c-.1.25-.2.56-.3.9l-.15.98-.15.6c0 .2-.02.4-.07.6.05.36.02.61-.08.76-.1.1-.12.2-.07.3a9.6 9.6 0 0 0-.23 1.58c.05.25-.02.5-.22.75.1.65.08 1.13-.07 1.43a.82.82 0 0 0-.08.75c-.25.36-.32.56-.22.6.1.06.12.13.07.23-.15.45-.2.93-.15 1.43.1.45 0 .88-.3 1.28-.04.25-.04.5 0 .75.1.2.1.4 0 .6l-.37 1.43v.6c.05.1.03.23-.07.38l-.15 1.05c-.1.25-.12.43-.07.53.04.1-.03.2-.23.3.15.15.2.35.15.6a.7.7 0 0 1-.37.53v.75c0 .1-.05.15-.15.15.1.1.1.23 0 .38-.05.1-.05.27 0 .52 0 .6-.05.9-.15.9-.1 0-.12.06-.07.16a6.2 6.2 0 0 0 .22 1.35.72.72 0 0 0-.22.53c.04.15.02.27-.08.37-.05.56-.05.88 0 .98.05.1.05.25 0 .45 0 .7-.07 1.28-.22 1.73.1.2.1.38 0 .53-.05.15-.03.35.07.6-.1.8-.2 1.23-.3 1.28 0 .45-.05.83-.15 1.13a3 3 0 0 0 0 .98c.1.15.15.32.15.52a4.26 4.26 0 0 1-.22 1.28c-.05.1-.07.25-.07.45v.45l-.08.9c.05 0 .08.06.08.16-.1.6-.15.98-.15 1.13 0 .1.02.2.07.3.05.3.17.62.37.98-.3.35-.4.62-.3.82-.14.35-.22.58-.22.68.05.1.03.2-.07.3.1.1.12.23.07.38v.6c-.05.65-.1 1.08-.15 1.28 0 .2.08.4.23.6-.15.4-.23.8-.23 1.2.05.35.08.73.08 1.13.05.35.02.6-.08.75-.05.1-.05.2 0 .3.15.8.2 1.4.15 1.8-.05.41-.02.86.08 1.36.1.45.12.7.07.76-.05.05-.05.12 0 .22 0 .15.03.3.08.45l.14.38c0 .45.03.7.08.75.05.05.07.1.07.15v.75c0 .3-.05.53-.15.68a3.76 3.76 0 0 0 .3 1.2c.05.56.08.93.08 1.13.05.2.07.4.07.6-.05.3-.02.6.08.9l.07 1.21c.2.55.27.85.22.9 0 .05.05.13.15.23-.15.35-.15.65 0 .9.2.3.28.65.23 1.05.15.56.22.88.22.98a.8.8 0 0 1-.15.45c.2.4.3.65.3.76 0 .15.05.25.15.3l.15.82c.3.35.44.58.44.68 0 .15.05.23.15.23.15.5.23.8.23.9.05.1.02.17-.08.22.2.7.4 1.2.6 1.5.2.36.35.66.45.91 0 .5.17.83.52.98-.15.15-.15.28 0 .38.2.15.25.3.15.45.2.15.32.35.37.6l.15.9c.2.25.45.48.74.68.25.45.33.68.23.68-.05 0-.08.05-.08.15.2.25.35.37.45.37.1.05.17.13.22.23a4.35 4.35 0 0 1 .45.98c.25.35.4.55.45.6.05.1.12.2.22.3.3.45.47.7.52.75.1.05.18.13.23.23.35.55.54.82.6.82.1 0 .2.03.3.08.29.5.46.78.51.83l.3.3c.2.4.4.65.6.75.25.25.52.38.82.38.2.2.35.32.44.37.1.1.25.13.45.08.15.25.45.47.9.67.3.35.52.55.67.6l.6.3c.54 0 .81.03.81.08l.15.15c.25.05.45.05.6 0 .2 0 .4.03.6.08l.37.15c.1.1.25.12.44.07h1.35c.2.05.34.03.44-.07.15-.05.28-.08.38-.08.4-.05.67-.05.82 0 .14.05.3.03.44-.07.35-.3.65-.48.9-.53.25-.05.47-.13.67-.23.35-.05.57-.15.67-.3.1-.1.22-.1.37 0 .2-.75.37-1.17.52-1.27.2-.1.35-.23.45-.38.15 0 .27.02.37.07.15.1.3.15.45.15-.05.5-.12.78-.22.83-.1.05-.15.18-.15.38-.55 0-.82.05-.82.15v.37a5.37 5.37 0 0 1-1.05.46c-.1.3-.22.47-.37.52-.15.1-.27.08-.37-.07-.1.1-.22.2-.37.3a.73.73 0 0 0-.3.45c-.25.1-.47.23-.67.38-.2.2-.43.25-.67.15-.15.1-.33.2-.53.3-.14.1-.37.15-.67.15-.6.1-.94.17-1.04.22l-.3.3c-.54-.05-.84-.05-.9 0 0 .05-.04.1-.14.15a1.51 1.51 0 0 0-.67 0 4.2 4.2 0 0 0-.52.23l-.45-.23-.6.08c-.54-.15-.82-.18-.82-.08a3.63 3.63 0 0 0-1.19-.07c-.64.05-1 .1-1.04.15 0 .1-.08.12-.23.07-.2-.1-.42-.2-.67-.3a1.63 1.63 0 0 1-.67-.3c-.4 0-.62-.02-.67-.07a5.04 5.04 0 0 1-.9-.45.93.93 0 0 1-.37-.23c-.5-.1-.79-.17-.89-.22-.4-.36-.7-.58-.9-.68-.5-.35-.76-.58-.81-.68-.05-.05-.18-.07-.38-.07a.96.96 0 0 0-.37-.6c-.15-.1-.27-.26-.37-.46-.35-.6-.62-.95-.82-1.05a1.9 1.9 0 0 0-.45-.75c-.15-.2-.27-.43-.37-.68-.35-.4-.57-.75-.67-1.05a.9.9 0 0 0-.45-.6c-.1-.46-.3-.86-.6-1.2-.24-.3-.42-.73-.52-1.29-.35-.4-.52-.7-.52-.9a5.2 5.2 0 0 1-.52-.9c0-.1-.05-.2-.15-.3a8.7 8.7 0 0 0-.15-1.06c0-.2-.02-.37-.07-.52a9.9 9.9 0 0 1-.82-1.28 2.81 2.81 0 0 1-.3-1.13 7.1 7.1 0 0 1-.52-1.58c0-.3-.1-.58-.3-.83-.2-.6-.3-1.02-.3-1.28a1 1 0 0 0-.07-.67 2.9 2.9 0 0 1-.23-.9c0-.16-.05-.33-.15-.53-.1-.7-.15-1.2-.15-1.5a.82.82 0 0 0-.22-.6c.1-.3.08-.63-.07-.99-.15-.35-.1-.65.15-.9-.2-.45-.33-.75-.38-.9a1.97 1.97 0 0 1-.07-.6c-.05-.4-.08-.65-.08-.75.05-.1.08-.2.08-.3l-.15-.6a2.5 2.5 0 0 1-.08-.6 5.97 5.97 0 0 1-.22-1.36c.05-.3.08-.53.08-.68a3.86 3.86 0 0 1-.08-1.65c.05-.5.05-.76 0-.76s-.05-.05 0-.15a21.8 21.8 0 0 1-.07-1.28c.05-.15.02-.32-.08-.52-.05-.2-.07-.35-.07-.45-.05-.25-.05-.5 0-.76.1-.2.15-.4.15-.6-.15-.55-.2-.85-.15-.9.05-.1.07-.2.07-.3 0-.3-.02-.6-.07-.9a7.5 7.5 0 0 1-.08-1.06c0-.45.03-.92.08-1.43.1-.5.12-1 .07-1.5-.4 0-.67-.03-.82-.08-.1-.05-.25-.07-.45-.07-.4 0-.64.02-.74.07h-.22c-.15-.05-.35-.1-.6-.15a.83.83 0 0 0-.6-.07c-.74.15-1.36.2-1.86.15-.45-.05-.9-.03-1.34.07-.15 0-.32.03-.52.08-.15.05-.3.07-.45.07a.68.68 0 0 1-.45 0 1.22 1.22 0 0 0-.37-.07c-.5.05-.84.07-1.04.07a2.2 2.2 0 0 0-.52-.07 9.3 9.3 0 0 0-1.8.22c-.34.1-.64.1-.89 0l-.82.08c-.1 0-.2-.03-.3-.08l-.52.16-.44.15c-.3.35-.53.6-.68.75.1.1.1.25 0 .45a.96.96 0 0 1-.22.45c.1.2.1.4 0 .6-.05.15-.02.35.08.6-.3.35-.45.63-.45.83-.2.05-.32.15-.37.3 0 .15-.08.25-.23.3 0 .25-.02.48-.07.68-.05.15-.13.3-.23.45-.1.6-.17.95-.22 1.05-.05.16-.17.28-.37.38-.05.5-.15.83-.3.98 0 .45-.05.7-.15.75-.05.1-.07.2-.07.3 0 .5-.15.83-.45.98-.05.3-.15.55-.3.75-.1.25-.22.5-.37.75l-.37 1.06a.45.45 0 0 0-.3.3.45.45 0 0 1-.3.3c-.15.55-.22.88-.22.98.05.1.05.22 0 .37-.55.3-.8.48-.75.53.05.1.05.2 0 .3-.3.25-.42.43-.37.53.1.1.12.22.07.37-.4.45-.7.68-.9.68-.04.55-.14.85-.29.9-.1.05-.2.13-.3.23.05.25-.02.4-.22.45-.15.05-.18.17-.08.38-.44.55-.84.87-1.19.97-.4.45-.57.68-.52.68-.1.2-.2.35-.3.45-.05.1-.12.23-.22.38-.25.4-.42.62-.52.67a.49.49 0 0 0-.23.23c-.35.5-.67.78-.97.83a5 5 0 0 1-.74.83c-.1.15-.18.27-.23.37-.3 0-.5.08-.6.23-.04.15-.12.3-.22.45l-.3.3c-.1.1-.17.22-.22.38a8 8 0 0 1-1.64.82c-.4.2-.7.5-.9.9-.49.2-.74.33-.74.38.05.1.05.18 0 .23-.34-.05-.57 0-.67.15a.7.7 0 0 1-.52.37 12.1 12.1 0 0 0-1.71.9c-.35.06-.62.1-.82.16-.25.1-.43.22-.52.37-.45-.1-.7-.12-.75-.07-.05.1-.12.1-.22 0-.5 0-.75-.03-.75-.08s-.05-.07-.15-.07c-.64.05-1.26 0-1.86-.15-.4.05-.72.05-.97 0s-.37-.2-.37-.45a4.8 4.8 0 0 0-.75-.08c-.25.05-.5.03-.74-.08-.1-.05-.2-.12-.3-.22-.1-.1-.27-.13-.52-.08-.3-.25-.5-.45-.6-.6-.15-.1-.35-.12-.6-.07-.2-.4-.42-.63-.67-.68l-.52-.9a4.78 4.78 0 0 1-.97-1.73c0-.1-.07-.15-.22-.15 0-.35-.03-.55-.07-.6a.49.49 0 0 1-.23-.23c-.05-.5-.12-.8-.22-.9 0-.5-.08-.8-.23-.9.1-.2.18-.43.23-.68 0-.25-.1-.45-.3-.6l.3-.76c-.05 0-.08-.02-.08-.07.05-.45.13-.78.23-.98-.1-.15-.1-.33 0-.53a.95.95 0 0 1 .22-.37c-.05-.35 0-.6.15-.75.1-.16.15-.4.15-.76.2-.25.32-.47.37-.67.05-.2.13-.43.23-.68l.74-.98c.15-.2.27-.42.37-.68.4-.55.7-.87.9-.97a.7.7 0 0 0 .37-.53c.25-.1.45-.28.6-.53.15-.2.34-.35.6-.45a11.33 11.33 0 0 0 1.33-1.28c.25-.15.4-.25.45-.3.05-.05.15-.12.3-.22l.9-.45c.2-.05.4-.13.59-.23.55-.4.87-.63.97-.68.1-.05.22-.07.37-.07.45-.25.7-.38.75-.38.34 0 .57-.02.67-.07h.97c0 .05.05.07.15.07a6.4 6.4 0 0 1 1.41.23c.8.2 1.27.37 1.42.52.15.15.35.25.6.3.24.46.5.7.74.76.05.25.25.45.6.6.1.45.2.65.3.6.1 0 .17.03.22.08.34.45.52.77.52.97.05.2.12.38.22.53-.15.55-.2.88-.15.98.1.15.15.27.15.37.05.25.03.5-.07.76-.1.25-.15.55-.15.9l-.75.6a.49.49 0 0 1-.22.23c-.15.4-.3.6-.45.6-.1 0-.2.02-.3.07-.4.5-.64.8-.74.9-.1.1-.25.16-.45.16a2.77 2.77 0 0 1-.3-1.36 2 2 0 0 0 .15-.75c-.05-.3-.15-.6-.3-.9a6.5 6.5 0 0 1-.37-.75 9.1 9.1 0 0 0-.74-.68c-.25-.2-.43-.48-.52-.83-.6-.15-.92-.25-.97-.3a.87.87 0 0 0-.23-.15c-.44 0-.8-.05-1.04-.15a4.1 4.1 0 0 1-.82-.38c-.25.05-.45.08-.6.08h-.6c-.44.05-.71.1-.81.15-.1.05-.25.05-.45 0-.4.4-.72.65-.97.75-.3.35-.47.63-.52.83a.67.67 0 0 1-.37.45c-.15.5-.28.83-.38.98l-.37.52a2 2 0 0 0-.07.9c0 .26-.1.43-.3.53.2.15.27.3.22.45a1.7 1.7 0 0 0-.07.53c0 .25.02.45.07.6.05.15-.05.28-.3.38.15.3.25.53.3.68.05.2.08.37.08.52-.2.55-.3.93-.3 1.13a.96.96 0 0 1-.22.45c.34.35.5.55.44.6-.05.1-.07.2-.07.3.45.16.67.36.67.6.25.2.4.3.45.3.05.06.17.06.37 0 .1.5.22.76.37.76.1.05.15.18.15.38.55.1.9.25 1.04.45.15.2.35.35.6.45.45.25.7.35.75.3.04 0 .12.02.22.07.55.15.9.2 1.04.15.1 0 .2.03.3.08.45.1.77.13.97.08.15-.05.32-.03.52.07.6 0 1.04-.05 1.34-.15.3-.1.67-.15 1.12-.15.1-.1.25-.2.45-.3.25-.05.42-.15.52-.3.65-.25 1.1-.45 1.34-.6.25-.1.45-.3.6-.6a4 4 0 0 1 .52-.38c.1 0 .12-.08.07-.23.25-.05.43-.15.52-.3.15-.15.35-.27.6-.37.2-.3.35-.5.45-.6l.3-.16c0-.25.07-.42.22-.52.2-.1.3-.3.3-.6.4-.1.64-.33.74-.68.15-.3.38-.5.67-.6.2-.3.33-.56.38-.76.1-.15.22-.3.37-.45.3-.35.45-.6.45-.75 0-.15.07-.28.22-.38.25-.35.4-.6.45-.75a.72.72 0 0 1 .3-.37c0-.4.12-.7.37-.9.25-.16.35-.48.3-.98.3-.36.5-.78.6-1.28.14-.5.37-.96.66-1.36.2-.6.35-1.08.45-1.43.15-.3.2-.62.15-.97.25-.4.42-.66.52-.76.15-.05.2-.2.15-.45.25-.15.37-.4.37-.75.05-.3.18-.58.38-.83a2 2 0 0 0 .3-.98c0-.3.07-.52.22-.67.15-.5.3-.95.44-1.36.05-.15.08-.27.08-.37 0-.1.02-.28.07-.53.2-.4.28-.63.23-.68v-.3l.22-.37c.1-.15.15-.28.15-.38a.9.9 0 0 0-.07-.6c-.05-.2-.05-.4 0-.6.1-.25.27-.48.52-.68.3-.2.34-.48.15-.83.24-.6.4-.97.44-1.12.1-.16.1-.3 0-.46.15-.45.2-.72.15-.82 0-.1.03-.2.08-.3.25-.56.34-.96.3-1.2a2 2 0 0 1 .14-.76l.3-.83c.15-.7.2-1.15.15-1.35 0-.25.08-.45.22-.6-.14-.45-.14-.83 0-1.13.2-.35.3-.75.3-1.2.1-.5.15-.8.15-.9.05-.1.13-.2.23-.3.1-.26.14-.44.14-.54 0-.1.03-.2.08-.3.05-.4.1-.6.15-.6.1-.05.15-.12.15-.22.05-.5.12-.86.22-1.06a9.1 9.1 0 0 0 .3-1.88c.3-.65.42-1.1.37-1.35 0-.3.13-.55.37-.75l.23-.83c.1-.4.15-.68.15-.83.2-.5.3-.88.3-1.13 0-.3.1-.57.3-.82-.06-.4 0-.73.14-.98.15-.3.2-.55.15-.75l.37-.83c.05-.35.1-.53.15-.53a.5.5 0 0 0 .23-.22c.05-.25.07-.5.07-.76.05-.25.15-.47.3-.67l.15-.9c.15-.46.25-.78.3-.98a.96.96 0 0 1 .37-.6c-.05-.46.02-.8.22-1.06.25-.25.38-.57.38-.98.2-.45.27-.67.22-.67-.05-.05-.08-.15-.08-.3.25-.1.38-.23.38-.38.05-.15.17-.28.37-.38.15-.35.22-.55.22-.6.05-.1.15-.15.3-.15.2-.6.32-.93.37-.98.3-.4.43-.62.38-.67-.05-.1-.03-.2.07-.3l.45-.9a1 1 0 0 0 .37-.6c.1-.26.25-.46.45-.61.05-.3.25-.63.6-.98.3-.3.44-.5.44-.6a27008.49 27008.49 0 0 0 .52-.75c.05 0 .1-.05.15-.15.15-.15.25-.28.3-.38.05-.1.15-.17.3-.22-.55-.4-1-.58-1.34-.53-.3 0-.6.05-.9.15-.1 0-.25.02-.44.07l-.6.16h-.82a13.72 13.72 0 0 1-1.79.22c-.05-.05-.12-.07-.22-.07l-2.16.07h-.82a6.4 6.4 0 0 1-.9-.07c-.2 0-.4-.03-.6-.08a1.64 1.64 0 0 0-.52-.07c-.6.25-1.06.35-1.41.3a3.42 3.42 0 0 0-1.5 0c-.2.05-.4 0-.59-.15-.5.2-.94.2-1.34 0a1 1 0 0 1-.82.22c-.3-.1-.62-.07-.97.08-.9.1-1.84.15-2.83.15-.5.15-.87.22-1.12.22-.2 0-.42.03-.67.08-.25.15-.45.22-.6.22a.68.68 0 0 0-.44 0 5.2 5.2 0 0 1-1.12.23c-.2 0-.35.05-.45.15-.15.1-.3.18-.45.23l-.6.22-1.33.3c-.65.45-1.1.7-1.35.75-.2.25-.37.38-.52.38a.82.82 0 0 0-.37.08c-.4.25-.62.4-.67.45 0 .05-.05.12-.15.22-.4.1-.62.23-.67.38-.05.15-.17.22-.37.22-.05.6-.18.96-.38 1.06-.24.6-.42.95-.52 1.05a.93.93 0 0 0-.37.23c.05.6.03.92-.07.97-.1.05-.2.13-.3.23-.6.6-.9 1.15-.9 1.65a15.69 15.69 0 0 1-.44 2.56c-.1.15-.1.33 0 .53-.05.85.02 1.48.22 1.88a5 5 0 0 0 .37.9c.05 0 .08.05.08.15.1.15.15.33.15.53-.05.15-.05.27 0 .37.1.26.24.46.44.6l.45.46c.1.4.22.67.37.83.1.1.28.12.52.07 0 .3.15.48.45.53.35 0 .52.15.52.45.2 0 .38.1.53.3.14.15.34.25.6.3l.89.23c.24.1.4.2.44.3.1.05.28.02.52-.08.35.3.6.35.75.15.2-.2.42-.3.67-.3.35.2.7.35 1.04.45.35.05.53.15.53.3l-1.27.76c-.25.15-.5.27-.75.37-.4-.05-.62-.05-.67 0a.87.87 0 0 1-.22.15c-.3 0-.5.05-.6.15-.1.05-.2.03-.3-.07-.44.15-.7.2-.74.15-.05-.1-.12-.13-.22-.08a4.7 4.7 0 0 0-1.2.38c-.1.05-.2.07-.3.07-.2 0-.4-.02-.6-.07a3.65 3.65 0 0 0-.74-.08l-.74-.37-1.42-.3c-.44-.4-.7-.58-.74-.53-.1.05-.2.07-.3.07-.3-.2-.45-.35-.45-.45 0-.15-.05-.2-.15-.15-.35-.5-.62-.8-.82-.9-.1-.35-.25-.6-.44-.75-.2-.2-.28-.5-.23-.9-.3-.3-.45-.5-.45-.6 0-.1-.02-.2-.07-.3-.2-.56-.27-.86-.22-.91a.58.58 0 0 0-.08-.23c0-.25-.02-.45-.07-.6-.1-.2-.18-.4-.23-.6.1-.6.13-1.03.08-1.28a3.52 3.52 0 0 1-.08-.67c.15-.36.23-.63.23-.83.15-.35.22-.6.22-.75 0-.15.05-.3.15-.46.25-1.25.57-2.13.97-2.63a4 4 0 0 1 .3-.9c.35-.6.62-.9.82-.9 0-.2.05-.35.15-.45.1-.1.15-.26.15-.46.5-.5.91-.87 1.26-1.12.35-.3.65-.66.9-1.06.2-.15.37-.22.52-.22.1-.05.15-.15.15-.3.35-.25.57-.43.67-.53l.3-.3c.5-.2.87-.55 1.11-1.05.5-.26.75-.4.75-.46.35-.2.57-.3.67-.3l.37-.22c.45-.3.72-.45.82-.45a.45.45 0 0 0 .3-.3c.4-.26.67-.38.82-.38.2 0 .37-.03.52-.08.25-.05.5-.2.75-.45.6-.15.92-.25.97-.3l1.86-.45 1.42-.53c.44-.3.74-.45.89-.45.2 0 .4-.05.6-.15.5-.15.82-.2.97-.15.14.05.27 0 .37-.15.15.1.3.13.45.08.2-.05.37-.08.52-.08.25-.05.47-.05.67 0 .2 0 .4-.05.6-.15.14.1.32.13.52.08.24-.05.44 0 .6.15.59-.05.84-.05.74 0-.05 0 0-.03.15-.08.34.1.54.13.6.08.1-.1.2-.13.3-.08.29.05.49.08.59.08.1-.05.25-.08.44-.08h.67Zm19.9.38c-.25.25-.5.37-.75.37-.5.25-.77.38-.82.38l-.97.3-.67.15a.82.82 0 0 0-.37.08c-.25.55-.48.9-.67 1.05-.2.1-.4.22-.6.38-.15.85-.57 1.37-1.27 1.57-.25.36-.37.56-.37.6.05.06.05.1 0 .16l-.67.75c0 .05-.05.12-.15.22 0 .6-.15 1-.45 1.2-.05.41-.1.69-.15.84 0 .15-.05.32-.15.52l-.6.53a.87.87 0 0 0-.14.22c0 .4-.05.68-.15.83-.05.1-.07.2-.07.3-.35.55-.55.98-.6 1.28 0 .3-.12.55-.37.75 0 .3-.1.53-.3.68-.15.15-.22.38-.22.68-.2.3-.35.5-.45.6-.05.05-.05.13 0 .23 0 .7-.05 1.15-.15 1.35-.1.15-.17.3-.22.45-.2.3-.3.5-.3.6.05.05.02.13-.08.23 0 .4-.02.65-.07.75a.32.32 0 0 1-.23.08c-.24.8-.47 1.25-.67 1.35l-.07.68c.05.05.07.1.07.15 0 .2-.05.4-.15.6a.5.5 0 0 0 .08.45c-.25.15-.32.35-.22.6.1.2.12.43.07.68l-.37.83c0 .1-.13.12-.37.07.1.2.17.4.22.6.05.15.02.35-.08.6-.24.4-.32.66-.22.76.1.05.15.12.15.22-.1.1-.2.23-.3.38-.1.1-.22.2-.37.3 0 .5-.05.75-.15.75-.05-.05-.05-.02 0 .08-.05.3-.12.55-.22.75-.05.2-.05.48 0 .83-.05.5-.13.8-.23.9l-.22.23c.2.4.22.8.07 1.2a11 11 0 0 0-.37 1.2c0 .55-.12.98-.37 1.28-.25.3-.42.6-.52.9 0 .15.02.28.07.38.1.1.15.25.15.45-.4.4-.55.65-.45.75.15.1.23.25.23.45-.1.26-.2.46-.3.6-.05.16-.03.28.07.38-.1.65-.2 1.08-.3 1.28-.04.15-.02.28.08.38-.2.35-.32.62-.37.82a3.7 3.7 0 0 1-.23.53c.5.4.9.65 1.2.75.3.05.62.05.96 0 .55-.1.85-.12.9-.07h.22c.6-.1.9-.13.9-.08h1.04c.05-.05.12-.07.22-.07l.53.22c.3.05.52 0 .67-.15.15.15.3.2.44.15.15-.1.35-.15.6-.15.35.1.57.13.67.08.15-.05.27-.08.37-.08.55.1.9.13 1.05.08.2-.05.42-.08.67-.08.15-.05.3-.05.44 0 .15.05.33.05.53 0 .74-.05 1.26-.07 1.56-.07.3-.05.6-.03.9.07a.7.7 0 0 0 0-.45.7.7 0 0 1 0-.45c0-.4.05-.78.14-1.13.15-.4.18-.75.08-1.05.05-.6.07-1.13.07-1.58.05-.45.2-.8.45-1.05-.15-.1-.2-.25-.15-.46l.15-.67c0-.5-.02-.85-.07-1.06 0-.2.02-.4.07-.6.05-.1.08-.35.08-.75s.02-.63.07-.68c-.05-.55-.07-.87-.07-.97 0-.1.02-.2.07-.3.15-.56.2-.86.15-.9v-.61c0-.2.02-.38.07-.53.1-.4.13-.65.08-.75 0-.15.02-.3.07-.45.1-.3.13-.48.08-.53v-.3c0-.15.02-.27.07-.37a.5.5 0 0 0 .08-.45c.2-.36.24-.53.15-.53-.05-.05-.05-.18 0-.38 0-.6.02-.97.07-1.13a3.52 3.52 0 0 0 .3-1.35c0-.2.07-.4.22-.6a6.58 6.58 0 0 1-.07-.9l.07-1.5c.2-.4.3-.66.3-.76v-.3c0-.55.1-.98.3-1.28-.05-.4-.05-.7 0-.9.05-.2.02-.35-.08-.45.1-.4.18-.68.23-.83a1.2 1.2 0 0 0 0-.6c.25-.76.32-1.33.22-1.73-.05-.4.07-.73.37-.98-.05-.4-.1-.65-.15-.75a1.24 1.24 0 0 1-.07-.3c.15-.46.2-.83.15-1.13.25-.6.35-1 .3-1.2 0-.26.05-.48.15-.68.2-.45.27-.73.22-.83v-.45a.8.8 0 0 0 .15-.45v-.38c.1-.45.12-.7.07-.75 0-.05.03-.13.08-.23.15-.25.25-.45.3-.6.05-.15.05-.27 0-.37.14-.26.2-.53.14-.83.3-.75.4-1.23.3-1.43a1.21 1.21 0 0 1 0-.6c-.25-.1-.52-.1-.82 0l-.97.15Z" fill="#202020"/><path d="m84.52 35.45-.15.98c.05.05.07.1.07.15-.05.4-.07.67-.07.82a.7.7 0 0 1 0 .45c-.05.1-.15.23-.3.38-.1.1-.1.25 0 .45-.3.4-.4.63-.3.68.1.05.15.1.15.15a3.44 3.44 0 0 1-.07 1.43c0 .65-.05 1.03-.15 1.13.05.3.02.57-.08.82-.05.26 0 .46.15.6.05.56.05.9 0 1.06 0 .1.05.22.15.38-.2.6-.27.95-.22 1.05.2.55.3.95.3 1.2 0 .2.07.4.22.6-.15.4-.18.78-.08 1.13.1.35.18.73.23 1.13-.05.55-.05.85 0 .9.05 0 .07.05.07.15.1.25.15.56.15.9 0 .3.08.56.22.76 0 .7.18 1.13.53 1.28-.05.35-.03.55.07.6.1.05.15.12.15.22-.1.26-.08.46.07.6.15.1.15.23 0 .38.2.1.4.18.6.23.2 0 .35.07.45.22.3 0 .54.05.74.15.25.1.5.08.75-.07.4-.2.64-.4.74-.6.35 0 .6-.05.75-.15l.6-.3c.14-.2.27-.3.37-.3a.7.7 0 0 1 .37-.08c-.1.2-.2.38-.3.53-.1.15-.1.37 0 .67-.25.1-.5.23-.74.38-.2.1-.38.28-.53.53-.5.4-.79.65-.89.75-.1.1-.25.15-.45.15-.5.45-.74.78-.74.98a.91.91 0 0 1-.52.15.93.93 0 0 0-.38.22c-.3.35-.5.53-.6.53-.04 0-.1.07-.14.22-.7.16-1.17.2-1.42.16h-.67c-.5-.1-.82-.26-.97-.46-.15-.15-.32-.15-.52 0-.1-.35-.35-.5-.74-.45-.25-.3-.43-.55-.53-.75-.05-.15-.17-.28-.37-.38a.84.84 0 0 1-.07-.37c0-.2-.03-.35-.08-.45l-.22-.45a1.55 1.55 0 0 1 0-.68 34 34 0 0 0-.67-1.8c-.1-.36-.1-.68 0-.98-.1-.4-.18-.66-.23-.76a1.24 1.24 0 0 1-.07-.3c0-.3-.03-.55-.07-.75v-.75c.05-.65.02-1.08-.08-1.28a3.8 3.8 0 0 1-.07-.75c.05-.55.05-.86 0-.9v-.23c.05-.45.05-.73 0-.83a.67.67 0 0 1-.08-.3c-.54.3-.9.53-1.04.68-.1.1-.2.22-.3.37-.1.3-.22.5-.37.6a.93.93 0 0 0-.38.23c-.3.25-.47.45-.52.6 0 .15-.05.28-.15.38-.3.2-.5.35-.6.45-.04.05-.04.18 0 .38-.2.1-.34.22-.44.37-.1.15-.27.28-.52.38-.25.35-.5.65-.75.9a2.6 2.6 0 0 1-.67.53c-.15.05-.27.17-.37.37-.4.25-.65.45-.74.6a.72.72 0 0 1-.3.38c-.45.25-.7.43-.75.53-.05.05-.12.05-.22 0-.65.55-.97.9-.97 1.05-.5.2-.8.38-.9.53-.1.15-.3.2-.6.15-.49.3-.99.42-1.48.37-.5-.1-.9-.2-1.2-.3l-.44-.22a2.3 2.3 0 0 0-.45-.15 2.61 2.61 0 0 1-.82-.6.95.95 0 0 0-.52-.46c.15-.25.15-.47 0-.67a15.6 15.6 0 0 0-.37-.6c.05-.26.05-.43 0-.53l-.15-.38c-.05-.6-.05-.93 0-.98a.2.2 0 0 0 .07-.15c0-.2-.02-.37-.07-.52-.05-.2-.05-.4 0-.6.2-.56.27-.96.22-1.2 0-.26.05-.48.15-.68.15-.26.2-.43.15-.53 0-.15.02-.28.07-.38.25-.4.38-.65.38-.75.1-.55.17-.83.22-.83.1-.35.2-.55.3-.6.15-.1.17-.25.07-.45.2-.35.3-.58.3-.68l.15-.3c.2-.05.35-.17.45-.37a.8.8 0 0 0 0-.68c.44-.2.67-.38.67-.53 0-.2.05-.37.15-.52.35-.25.67-.46.97-.6.3-.2.44-.53.44-.98.3-.35.53-.56.67-.6a.7.7 0 0 0 .38-.53c.15-.1.27-.2.37-.3.1-.15.2-.28.3-.38.25-.25.37-.4.37-.45 0-.05.05-.13.15-.23.55-.3.87-.5.97-.6l.67-.75c.1-.1.25-.18.45-.23.4-.35.8-.62 1.19-.82.2-.1.35-.15.45-.15a.72.72 0 0 0 .37-.3c.45-.1.84-.2 1.2-.3.69-.36 1.2-.48 1.56-.38.34.05.77.05 1.26 0 .5.2.8.35.9.45.15.1.27.18.37.23.15 0 .32-.03.52-.08s.37-.02.52.08c.5.4.77.6.82.6.1 0 .2.05.3.15.6.3 1.04.35 1.34.15l.82-.53c.2.05.38.08.52.08.2-.05.38 0 .53.15Zm-9.17 3.3c-.25 0-.42-.04-.52-.14a.49.49 0 0 0-.23-.23c-.44-.1-.82-.07-1.11.08-.3.15-.65.22-1.05.22-.5.45-.74.7-.74.75-.3.4-.52.68-.67.83-.15.15-.18.35-.08.6-.6.25-.9.56-.9.9 0 .36-.17.58-.51.68a2.7 2.7 0 0 1-.23.68 12.26 12.26 0 0 0-.45 1.65c.05.06.05.13 0 .23-.1.25-.22.48-.37.68-.1.2-.1.37 0 .52l-.3 1.13c-.05.2-.12.43-.22.68.05.45.08.8.08 1.05s.02.53.07.83c.1.3.15.58.15.83l.6.6c.04 0 .07.02.07.07.7.1 1.07.18 1.12.23l.44.23c.25-.26.5-.46.75-.6.25-.16.42-.43.52-.83.5-.45.8-.76.9-.9.14-.2.34-.36.6-.46l.74-.98c.4-.3.62-.55.67-.75.1-.2.2-.47.3-.82a8 8 0 0 0 .44-.38c.1-.1.13-.25.08-.45.1-.2.2-.38.3-.53.15-.2.22-.43.22-.68.25-.1.4-.22.45-.37.1-.2.27-.3.52-.3.05-.5.12-.78.22-.83.1-.1.25-.15.45-.15.1-.55.2-.95.3-1.2l.3-.76c-.35-.4-.53-.7-.53-.9a2.4 2.4 0 0 0-.74-.38.88.88 0 0 1-.15-.22c-.2-.1-.4-.18-.6-.23-.15-.1-.32-.17-.52-.22l-.37-.15Z" fill="#202020"/></svg>