<svg viewBox="0 0 93 52" fill="none" xmlns="http://www.w3.org/2000/svg"><path d="m51.84 49.51-8 1.16a405.9 405.9 0 0 0-4.23-13.8l-27.28 1.2a342.1 342.1 0 0 0-4.64 13.04l-7.69-1.05a344.5 344.5 0 0 1 10.57-25.35 494.26 494.26 0 0 1 12.4-24.71l9.49.17a309.82 309.82 0 0 1 10.64 24.13c3.2 8.17 6.12 16.58 8.74 25.21Zm-24.84-43.85a334.08 334.08 0 0 0-12.3 26.48l22.9-1a235.77 235.77 0 0 0-4.94-12.84c-1.76-4.2-3.65-8.42-5.66-12.64Zm64.48 46.34-6.65-1.12.48-4.8a32.07 32.07 0 0 1-8.13 3.84c-2.64.8-5.12 1.2-7.42 1.2-1.63 0-3.2-.22-4.74-.65a11.32 11.32 0 0 1-4-1.95 9.82 9.82 0 0 1-2.85-3.3 10.38 10.38 0 0 1-1.05-4.8c0-1.85.27-3.5.81-4.95a12.74 12.74 0 0 1 2.24-3.85 14.12 14.12 0 0 1 3.35-2.86c1.3-.8 2.68-1.44 4.17-1.94a31.86 31.86 0 0 1 9.49-1.47c1.49 0 2.88.06 4.17.17 1.28.12 2.42.26 3.42.45a22.5 22.5 0 0 0-1.66-4.54 9.24 9.24 0 0 0-2.71-3.4 6.67 6.67 0 0 0-4.3-1.33c-.89 0-1.9.13-3.02.4-1.13.26-2.37.72-3.73 1.4a29.97 29.97 0 0 0-4.44 2.83 43.71 43.71 0 0 0-5.15 4.57l-4.1-5.01a45.17 45.17 0 0 1 6.24-5.01 36.88 36.88 0 0 1 5.62-3.07 23.18 23.18 0 0 1 8.91-1.9c2.1 0 3.96.35 5.56 1.05 1.63.7 3.06 1.68 4.3 2.93a16.21 16.21 0 0 1 3.12 4.36 31.5 31.5 0 0 1 2.07 5.39c.54 1.93.92 3.93 1.15 6 .25 2.06.37 4.12.37 6.16 0 2.18-.12 4.52-.37 7.02s-.64 5.23-1.15 8.18Zm-5.7-13.53c.05-1.13.08-2.26.1-3.37a26.3 26.3 0 0 0-.16-3.48 28 28 0 0 0-3.5-.82 24.5 24.5 0 0 0-9.59.4 15.9 15.9 0 0 0-4.9 2.1 9.12 9.12 0 0 0-3.12 3.33 6.3 6.3 0 0 0-.4 4.5c.3 1.36.92 2.32 1.82 2.86.93.55 2.03.82 3.32.82 1.67 0 3.55-.35 5.63-1.06a45.51 45.51 0 0 0 6-2.59c1.94-1 3.54-1.9 4.8-2.69Z" fill="#202020"/></svg>