<svg viewBox="0 0 40 33" fill="none" xmlns="http://www.w3.org/2000/svg"><path d="M0 32.47h7.34v-10.47c.62.14 2.97.14 3.55.14 6.28 0 12.32-3.07 12.32-11.19 0-9.41-7.19-10.95-13.9-10.95-3.27 0-6.67.34-9.31.82v31.65Zm9.93-26.13c2.83 0 5.6.91 5.6 4.47 0 4.18-2.96 5-5.94 5-.38 0-1.87-.1-2.25-.2v-9.03c.57-.14 1.53-.24 2.59-.24m14.4 6.25h3.3l-3.3 12.1a16.4 16.4 0 0 0-.77 4.23c0 2.88 2.06 4.08 4.51 4.08 3.26 0 6.57-1.3 8.78-3.5l-.53-1.2a8.64 8.64 0 0 1-4.12 1.05 1.95 1.95 0 0 1-2.07-2.02c0-1 .3-2.06.53-2.98l3.26-11.76h5.33c.52-.77.86-2.02.72-2.93h-5.33l1.4-5.05-.92-.52c-1.44.14-4.31.67-5.7 1.63l-.91 3.46c-1.59.43-2.83.9-4.08 1.58l-.1 1.83Z" fill="#202020"/></svg>