<svg viewBox="0 0 76 67" fill="none" xmlns="http://www.w3.org/2000/svg"><path d="M9.65 66.24h-9.65l13.52-66.24h13.24l13.43 66.24h-9.83l-3.22-16.94h-14.28l-3.21 16.94Zm10.3-53.28-5.48 27.35h11.06l-5.48-27.35h-.1Zm33.83 54.04c-1.77 0-3.35-.28-4.73-.85a10.26 10.26 0 0 1-3.5-2.56 13.22 13.22 0 0 1-2.08-3.97 18.63 18.63 0 0 1-.66-5.2v-3.98c0-2.27.37-4.07 1.13-5.4a9.6 9.6 0 0 1 2.93-3.21c1.2-.89 2.56-1.55 4.07-1.99 1.57-.5 3.15-.98 4.73-1.42l3.3-.85c1.02-.32 1.9-.7 2.66-1.14a4.4 4.4 0 0 0 1.7-1.7c.44-.7.66-1.64.66-2.84v-2.93c0-.95-.13-1.74-.38-2.37a3.7 3.7 0 0 0-.94-1.7 3.83 3.83 0 0 0-1.7-.95 8.35 8.35 0 0 0-2.37-.28 9 9 0 0 0-2.37.28 4.9 4.9 0 0 0-1.89 1.04 4.7 4.7 0 0 0-1.23 1.9 9.85 9.85 0 0 0-.37 3.02v3.98h-8.8v-3.88c0-2.34.35-4.39 1.04-6.15a12.17 12.17 0 0 1 7.66-7.29 20 20 0 0 1 6.34-.95c2.52 0 4.66.32 6.43.95 1.76.63 3.21 1.58 4.35 2.84a10 10 0 0 1 2.55 4.54c.57 1.77.85 3.85.85 6.25v26.5c0 1.38.1 2.4.29 3.02.25.57.75.89 1.51.95h.47l.57-.19v5.77c-.76.13-1.54.2-2.36.2h-2.37c-1.2 0-2.24-.1-3.12-.3a5.53 5.53 0 0 1-2.08-1.13 5.64 5.64 0 0 1-1.13-1.98 12.4 12.4 0 0 1-.48-2.94c-.44 1.01-1 1.96-1.7 2.84a13.2 13.2 0 0 1-2.36 2.18 11 11 0 0 1-3.03 1.32c-1.14.38-2.33.57-3.6.57Zm3.4-7.95a8.3 8.3 0 0 0 2.93-.47 5.78 5.78 0 0 0 2.08-1.61 5.85 5.85 0 0 0 1.33-2.65c.31-1.07.47-2.3.47-3.7v-9.17c-.25.19-.57.4-.95.66a14.33 14.33 0 0 1-2.64 1.04c-.5.13-1.04.25-1.61.38-.7.19-1.45.38-2.27.57-.76.19-1.48.47-2.18.85a4.1 4.1 0 0 0-1.6 1.51 5.17 5.17 0 0 0-.57 2.65v4.45c0 .95.1 1.77.28 2.46.25.7.6 1.3 1.04 1.8.44.44.95.76 1.51.95.64.19 1.36.28 2.18.28Z" fill="#202020"/></svg>