<svg viewBox="0 0 136 63" fill="none" xmlns="http://www.w3.org/2000/svg"><path d="M12.78 38.83c0 .46-.13.84-.4 1.14-.26.28-.6.52-1.02.73-.43.2-.94.36-1.55.49-.57.13-1.17.24-1.8.34a7.13 7.13 0 0 0-3.99 2.47 9.63 9.63 0 0 0-1.73 3.04 13.7 13.7 0 0 0-.67 4.64 13 13 0 0 0 .75 4.75 7.67 7.67 0 0 0 4.96 4.64 12.68 12.68 0 0 0 7.1-.12c1.19-.38 2.33-.95 3.43-1.71s2.2-1.72 3.27-2.89a42.93 42.93 0 0 0 3.31-4.1 72.1 72.1 0 0 0 4.02-6.42 180.46 180.46 0 0 0 7.64-15.13 1205.55 1205.55 0 0 1 7-15.05c1.12-2.33 2.2-4.45 3.26-6.38 1.1-2 2.1-3.6 2.97-4.82a14.3 14.3 0 0 1 2.56-2.82 6.5 6.5 0 0 1 2.48-1.29c.83-.23 1.73-.34 2.7-.34 2.81 0 4.84.6 6.1 1.82 1.25 1.22 1.88 3.03 1.88 5.44 0 1.85-.31 4.05-.94 6.6-.63 2.57-1.42 5.32-2.37 8.25-.95 2.92-1.98 5.93-3.08 9.05a356.2 356.2 0 0 0-3.09 9 116.3 116.3 0 0 0-2.37 8.17 27.57 27.57 0 0 0-.94 6.42c0 1.93.44 3.42 1.32 4.49.88 1.06 2.33 1.6 4.36 1.6 1.66 0 3.25-.4 4.78-1.18a17.53 17.53 0 0 0 4.58-3.5 40.99 40.99 0 0 0 4.63-5.85c1.58-2.33 3.23-5.04 4.96-8.13l1.96-3.5 1.01.72-1.95 3.5a131.63 131.63 0 0 1-5.27 8.7 40.9 40.9 0 0 1-4.96 6.16 18.29 18.29 0 0 1-5.08 3.68 12.3 12.3 0 0 1-5.49 1.26c-1.55 0-2.92-.24-4.1-.73a8.52 8.52 0 0 1-4.8-4.9c-.4-1.14-.6-2.35-.6-3.65a23 23 0 0 1 .4-3.95c.3-1.52.7-3.16 1.17-4.94.5-1.8 1.07-3.68 1.7-5.66.64-2 1.32-4.04 2.02-6.12h-15.83c-.92 1.95-1.88 3.88-2.85 5.78a159.2 159.2 0 0 1-5.8 10.56c-.95 1.57-1.89 3-2.81 4.3a35.88 35.88 0 0 1-3.65 4.4 21.1 21.1 0 0 1-3.61 2.97 13.85 13.85 0 0 1-7.75 2.24c-3.33 0-5.94-.98-7.82-2.93-1.85-1.97-2.78-4.82-2.78-8.55 0-2 .26-3.87.79-5.62a15.8 15.8 0 0 1 2.18-4.63 10.94 10.94 0 0 1 3.27-3.12 7.7 7.7 0 0 1 4.06-1.14c.73 0 1.32.13 1.77.38.48.25.71.73.71 1.44Zm35.27-29.1a213.82 213.82 0 0 0-4.66 9.53 3641.02 3641.02 0 0 1-5.45 11.63h15.6c.83-2.43 1.63-4.85 2.4-7.26.81-2.4 1.53-4.7 2.15-6.91.65-2.2 1.17-4.24 1.54-6.12.4-1.87.6-3.5.6-4.86 0-.89-.08-1.61-.26-2.17a2.93 2.93 0 0 0-.75-1.29c-.3-.33-.68-.54-1.13-.65a6.7 6.7 0 0 0-3.72.19c-.68.26-1.34.7-2 1.33-.64.64-1.32 1.49-2.02 2.55a42.6 42.6 0 0 0-2.3 4.03Z" fill="#202020"/><path d="M78.73 39.02a42.02 42.02 0 0 1 7.3-13.45 29.97 29.97 0 0 1 9.48-7.64 23.45 23.45 0 0 1 4.77-1.86c1.58-.4 3.06-.6 4.44-.6a8.2 8.2 0 0 1 3.57.68 5.56 5.56 0 0 1 2.3 1.86c.6.79 1.02 1.75 1.27 2.89.25 1.11.38 2.35.38 3.72l3.04-8.43h5.57l-9.6 26.6c-.34.98-.7 2-1.04 3.04a47.11 47.11 0 0 0-.94 3.03c-.25 1-.47 1.96-.64 2.9-.15.9-.23 1.75-.23 2.54 0 1.75.45 3.14 1.35 4.18.93 1.04 2.36 1.56 4.3 1.56 1.67 0 3.3-.36 4.88-1.07a17.4 17.4 0 0 0 4.66-3.3 37.13 37.13 0 0 0 4.66-5.59 91.62 91.62 0 0 0 4.82-7.9l1.92-3.5 1.01.72-1.96 3.5a99.6 99.6 0 0 1-5.26 8.55 38.3 38.3 0 0 1-4.96 5.93 18.3 18.3 0 0 1-5.08 3.45 14 14 0 0 1-5.53 1.1c-1.52 0-2.88-.23-4.06-.72a7.93 7.93 0 0 1-2.93-1.97 8.6 8.6 0 0 1-1.77-3.12c-.4-1.21-.6-2.57-.6-4.06 0-1 .09-2.06.27-3.2.17-1.16.43-2.36.78-3.6-3.28 5.57-6.53 9.75-9.73 12.53-3.21 2.77-6.47 4.15-9.78 4.15a8.75 8.75 0 0 1-3.99-.84 7.6 7.6 0 0 1-2.67-2.4 10.89 10.89 0 0 1-1.54-3.6 20 20 0 0 1-.49-4.56c0-1.78.18-3.64.53-5.59a42.8 42.8 0 0 1 1.5-5.93Zm8.01 21.02c1.36 0 2.74-.36 4.14-1.07 1.4-.73 2.8-1.72 4.17-2.96a34.4 34.4 0 0 0 4.06-4.4 67.85 67.85 0 0 0 9.44-17.29 40.97 40.97 0 0 0 1.66-5.63c.4-1.8.6-3.4.6-4.83a9.2 9.2 0 0 0-.5-3.23c-.3-.88-.7-1.6-1.23-2.13a4.11 4.11 0 0 0-1.77-1.17 6.1 6.1 0 0 0-2.03-.35c-1.4 0-2.97.45-4.7 1.33-1.7.87-3.45 2.2-5.23 4a38.77 38.77 0 0 0-5.26 6.76 56.44 56.44 0 0 0-4.7 9.57 64.04 64.04 0 0 0-2.67 8.52 30.9 30.9 0 0 0-.86 6.53c0 1.98.38 3.53 1.16 4.67.8 1.12 2.04 1.68 3.72 1.68Z" fill="#202020"/></svg>