<svg viewBox="0 0 18 15" fill="none" xmlns="http://www.w3.org/2000/svg"><path d="M18 1.28c-.25 2.64-1.33 9.04-1.88 12-.23 1.25-.7 1.66-1.13 1.71-.97.09-1.7-.63-2.63-1.25-1.46-.96-2.29-1.57-3.7-2.5-1.65-1.08-.58-1.68.36-2.65.25-.25 4.5-4.14 4.59-4.49a.33.33 0 0 0-.08-.3c-.1-.08-.24-.05-.35-.03-.15.03-2.48 1.58-7.01 4.65-.67.45-1.27.69-1.8.67-.6-.02-1.72-.33-2.57-.62-1.05-.33-1.86-.51-1.8-1.1.04-.3.45-.6 1.23-.92 4.85-2.11 8.08-3.51 9.69-4.18 4.62-1.94 5.56-2.27 6.2-2.27.13 0 .44.03.64.2.17.13.22.32.24.45-.02.1.01.4 0 .63Z" fill="#F0F0F0"/></svg>